<?xml version="1.0" encoding="utf-8" standalone="no"?>
<!DOCTYPE svg PUBLIC "-//W3C//DTD SVG 1.1//EN"
  "http://www.w3.org/Graphics/SVG/1.1/DTD/svg11.dtd">
<svg xmlns:xlink="http://www.w3.org/1999/xlink" width="460.8pt" height="345.6pt" viewBox="0 0 460.8 345.6" xmlns="http://www.w3.org/2000/svg" version="1.1">
 <metadata>
  <rdf:RDF xmlns:dc="http://purl.org/dc/elements/1.1/" xmlns:cc="http://creativecommons.org/ns#" xmlns:rdf="http://www.w3.org/1999/02/22-rdf-syntax-ns#">
   <cc:Work>
    <dc:type rdf:resource="http://purl.org/dc/dcmitype/StillImage"/>
    <dc:date>2026-01-21T18:00:27.317855</dc:date>
    <dc:format>image/svg+xml</dc:format>
    <dc:creator>
     <cc:Agent>
      <dc:title>Matplotlib v3.10.7, https://matplotlib.org/</dc:title>
     </cc:Agent>
    </dc:creator>
   </cc:Work>
  </rdf:RDF>
 </metadata>
 <defs>
  <style type="text/css">*{stroke-linejoin: round; stroke-linecap: butt}</style>
 </defs>
 <g id="figure_1">
  <g id="patch_1">
   <path d="M 0 345.6 
L 460.8 345.6 
L 460.8 0 
L 0 0 
z
" style="fill: #ffffff"/>
  </g>
  <g id="axes_1">
   <g id="patch_2">
    <path d="M 57.6 307.584 
L 414.72 307.584 
L 414.72 41.472 
L 57.6 41.472 
z
" style="fill: #ffffff"/>
   </g>
   <g id="matplotlib.axis_1">
    <g id="xtick_1">
     <g id="line2d_1">
      <defs>
       <path id="mbb7e8ea2f9" d="M 0 0 
L 0 3.5 
" style="stroke: #000000; stroke-width: 0.8"/>
      </defs>
      <g>
       <use xlink:href="#mbb7e8ea2f9" x="73.832727" y="307.584" style="stroke: #000000; stroke-width: 0.8"/>
      </g>
     </g>
     <g id="text_1">
      <!-- 0 -->
      <g transform="translate(70.651477 322.182437) scale(0.1 -0.1)">
       <defs>
        <path id="DejaVuSans-30" d="M 2034 4250 
Q 1547 4250 1301 3770 
Q 1056 3291 1056 2328 
Q 1056 1369 1301 889 
Q 1547 409 2034 409 
Q 2525 409 2770 889 
Q 3016 1369 3016 2328 
Q 3016 3291 2770 3770 
Q 2525 4250 2034 4250 
z
M 2034 4750 
Q 2819 4750 3233 4129 
Q 3647 3509 3647 2328 
Q 3647 1150 3233 529 
Q 2819 -91 2034 -91 
Q 1250 -91 836 529 
Q 422 1150 422 2328 
Q 422 3509 836 4129 
Q 1250 4750 2034 4750 
z
" transform="scale(0.015625)"/>
       </defs>
       <use xlink:href="#DejaVuSans-30"/>
      </g>
     </g>
    </g>
    <g id="xtick_2">
     <g id="line2d_2">
      <g>
       <use xlink:href="#mbb7e8ea2f9" x="138.763636" y="307.584" style="stroke: #000000; stroke-width: 0.8"/>
      </g>
     </g>
     <g id="text_2">
      <!-- 200 -->
      <g transform="translate(129.219886 322.182437) scale(0.1 -0.1)">
       <defs>
        <path id="DejaVuSans-32" d="M 1228 531 
L 3431 531 
L 3431 0 
L 469 0 
L 469 531 
Q 828 903 1448 1529 
Q 2069 2156 2228 2338 
Q 2531 2678 2651 2914 
Q 2772 3150 2772 3378 
Q 2772 3750 2511 3984 
Q 2250 4219 1831 4219 
Q 1534 4219 1204 4116 
Q 875 4013 500 3803 
L 500 4441 
Q 881 4594 1212 4672 
Q 1544 4750 1819 4750 
Q 2544 4750 2975 4387 
Q 3406 4025 3406 3419 
Q 3406 3131 3298 2873 
Q 3191 2616 2906 2266 
Q 2828 2175 2409 1742 
Q 1991 1309 1228 531 
z
" transform="scale(0.015625)"/>
       </defs>
       <use xlink:href="#DejaVuSans-32"/>
       <use xlink:href="#DejaVuSans-30" transform="translate(63.623047 0)"/>
       <use xlink:href="#DejaVuSans-30" transform="translate(127.246094 0)"/>
      </g>
     </g>
    </g>
    <g id="xtick_3">
     <g id="line2d_3">
      <g>
       <use xlink:href="#mbb7e8ea2f9" x="203.694545" y="307.584" style="stroke: #000000; stroke-width: 0.8"/>
      </g>
     </g>
     <g id="text_3">
      <!-- 400 -->
      <g transform="translate(194.150795 322.182437) scale(0.1 -0.1)">
       <defs>
        <path id="DejaVuSans-34" d="M 2419 4116 
L 825 1625 
L 2419 1625 
L 2419 4116 
z
M 2253 4666 
L 3047 4666 
L 3047 1625 
L 3713 1625 
L 3713 1100 
L 3047 1100 
L 3047 0 
L 2419 0 
L 2419 1100 
L 313 1100 
L 313 1709 
L 2253 4666 
z
" transform="scale(0.015625)"/>
       </defs>
       <use xlink:href="#DejaVuSans-34"/>
       <use xlink:href="#DejaVuSans-30" transform="translate(63.623047 0)"/>
       <use xlink:href="#DejaVuSans-30" transform="translate(127.246094 0)"/>
      </g>
     </g>
    </g>
    <g id="xtick_4">
     <g id="line2d_4">
      <g>
       <use xlink:href="#mbb7e8ea2f9" x="268.625455" y="307.584" style="stroke: #000000; stroke-width: 0.8"/>
      </g>
     </g>
     <g id="text_4">
      <!-- 600 -->
      <g transform="translate(259.081705 322.182437) scale(0.1 -0.1)">
       <defs>
        <path id="DejaVuSans-36" d="M 2113 2584 
Q 1688 2584 1439 2293 
Q 1191 2003 1191 1497 
Q 1191 994 1439 701 
Q 1688 409 2113 409 
Q 2538 409 2786 701 
Q 3034 994 3034 1497 
Q 3034 2003 2786 2293 
Q 2538 2584 2113 2584 
z
M 3366 4563 
L 3366 3988 
Q 3128 4100 2886 4159 
Q 2644 4219 2406 4219 
Q 1781 4219 1451 3797 
Q 1122 3375 1075 2522 
Q 1259 2794 1537 2939 
Q 1816 3084 2150 3084 
Q 2853 3084 3261 2657 
Q 3669 2231 3669 1497 
Q 3669 778 3244 343 
Q 2819 -91 2113 -91 
Q 1303 -91 875 529 
Q 447 1150 447 2328 
Q 447 3434 972 4092 
Q 1497 4750 2381 4750 
Q 2619 4750 2861 4703 
Q 3103 4656 3366 4563 
z
" transform="scale(0.015625)"/>
       </defs>
       <use xlink:href="#DejaVuSans-36"/>
       <use xlink:href="#DejaVuSans-30" transform="translate(63.623047 0)"/>
       <use xlink:href="#DejaVuSans-30" transform="translate(127.246094 0)"/>
      </g>
     </g>
    </g>
    <g id="xtick_5">
     <g id="line2d_5">
      <g>
       <use xlink:href="#mbb7e8ea2f9" x="333.556364" y="307.584" style="stroke: #000000; stroke-width: 0.8"/>
      </g>
     </g>
     <g id="text_5">
      <!-- 800 -->
      <g transform="translate(324.012614 322.182437) scale(0.1 -0.1)">
       <defs>
        <path id="DejaVuSans-38" d="M 2034 2216 
Q 1584 2216 1326 1975 
Q 1069 1734 1069 1313 
Q 1069 891 1326 650 
Q 1584 409 2034 409 
Q 2484 409 2743 651 
Q 3003 894 3003 1313 
Q 3003 1734 2745 1975 
Q 2488 2216 2034 2216 
z
M 1403 2484 
Q 997 2584 770 2862 
Q 544 3141 544 3541 
Q 544 4100 942 4425 
Q 1341 4750 2034 4750 
Q 2731 4750 3128 4425 
Q 3525 4100 3525 3541 
Q 3525 3141 3298 2862 
Q 3072 2584 2669 2484 
Q 3125 2378 3379 2068 
Q 3634 1759 3634 1313 
Q 3634 634 3220 271 
Q 2806 -91 2034 -91 
Q 1263 -91 848 271 
Q 434 634 434 1313 
Q 434 1759 690 2068 
Q 947 2378 1403 2484 
z
M 1172 3481 
Q 1172 3119 1398 2916 
Q 1625 2713 2034 2713 
Q 2441 2713 2670 2916 
Q 2900 3119 2900 3481 
Q 2900 3844 2670 4047 
Q 2441 4250 2034 4250 
Q 1625 4250 1398 4047 
Q 1172 3844 1172 3481 
z
" transform="scale(0.015625)"/>
       </defs>
       <use xlink:href="#DejaVuSans-38"/>
       <use xlink:href="#DejaVuSans-30" transform="translate(63.623047 0)"/>
       <use xlink:href="#DejaVuSans-30" transform="translate(127.246094 0)"/>
      </g>
     </g>
    </g>
    <g id="xtick_6">
     <g id="line2d_6">
      <g>
       <use xlink:href="#mbb7e8ea2f9" x="398.487273" y="307.584" style="stroke: #000000; stroke-width: 0.8"/>
      </g>
     </g>
     <g id="text_6">
      <!-- 1000 -->
      <g transform="translate(385.762273 322.182437) scale(0.1 -0.1)">
       <defs>
        <path id="DejaVuSans-31" d="M 794 531 
L 1825 531 
L 1825 4091 
L 703 3866 
L 703 4441 
L 1819 4666 
L 2450 4666 
L 2450 531 
L 3481 531 
L 3481 0 
L 794 0 
L 794 531 
z
" transform="scale(0.015625)"/>
       </defs>
       <use xlink:href="#DejaVuSans-31"/>
       <use xlink:href="#DejaVuSans-30" transform="translate(63.623047 0)"/>
       <use xlink:href="#DejaVuSans-30" transform="translate(127.246094 0)"/>
       <use xlink:href="#DejaVuSans-30" transform="translate(190.869141 0)"/>
      </g>
     </g>
    </g>
    <g id="text_7">
     <!-- Generation -->
     <g transform="translate(208.267031 335.860562) scale(0.1 -0.1)">
      <defs>
       <path id="DejaVuSans-47" d="M 3809 666 
L 3809 1919 
L 2778 1919 
L 2778 2438 
L 4434 2438 
L 4434 434 
Q 4069 175 3628 42 
Q 3188 -91 2688 -91 
Q 1594 -91 976 548 
Q 359 1188 359 2328 
Q 359 3472 976 4111 
Q 1594 4750 2688 4750 
Q 3144 4750 3555 4637 
Q 3966 4525 4313 4306 
L 4313 3634 
Q 3963 3931 3569 4081 
Q 3175 4231 2741 4231 
Q 1884 4231 1454 3753 
Q 1025 3275 1025 2328 
Q 1025 1384 1454 906 
Q 1884 428 2741 428 
Q 3075 428 3337 486 
Q 3600 544 3809 666 
z
" transform="scale(0.015625)"/>
       <path id="DejaVuSans-65" d="M 3597 1894 
L 3597 1613 
L 953 1613 
Q 991 1019 1311 708 
Q 1631 397 2203 397 
Q 2534 397 2845 478 
Q 3156 559 3463 722 
L 3463 178 
Q 3153 47 2828 -22 
Q 2503 -91 2169 -91 
Q 1331 -91 842 396 
Q 353 884 353 1716 
Q 353 2575 817 3079 
Q 1281 3584 2069 3584 
Q 2775 3584 3186 3129 
Q 3597 2675 3597 1894 
z
M 3022 2063 
Q 3016 2534 2758 2815 
Q 2500 3097 2075 3097 
Q 1594 3097 1305 2825 
Q 1016 2553 972 2059 
L 3022 2063 
z
" transform="scale(0.015625)"/>
       <path id="DejaVuSans-6e" d="M 3513 2113 
L 3513 0 
L 2938 0 
L 2938 2094 
Q 2938 2591 2744 2837 
Q 2550 3084 2163 3084 
Q 1697 3084 1428 2787 
Q 1159 2491 1159 1978 
L 1159 0 
L 581 0 
L 581 3500 
L 1159 3500 
L 1159 2956 
Q 1366 3272 1645 3428 
Q 1925 3584 2291 3584 
Q 2894 3584 3203 3211 
Q 3513 2838 3513 2113 
z
" transform="scale(0.015625)"/>
       <path id="DejaVuSans-72" d="M 2631 2963 
Q 2534 3019 2420 3045 
Q 2306 3072 2169 3072 
Q 1681 3072 1420 2755 
Q 1159 2438 1159 1844 
L 1159 0 
L 581 0 
L 581 3500 
L 1159 3500 
L 1159 2956 
Q 1341 3275 1631 3429 
Q 1922 3584 2338 3584 
Q 2397 3584 2469 3576 
Q 2541 3569 2628 3553 
L 2631 2963 
z
" transform="scale(0.015625)"/>
       <path id="DejaVuSans-61" d="M 2194 1759 
Q 1497 1759 1228 1600 
Q 959 1441 959 1056 
Q 959 750 1161 570 
Q 1363 391 1709 391 
Q 2188 391 2477 730 
Q 2766 1069 2766 1631 
L 2766 1759 
L 2194 1759 
z
M 3341 1997 
L 3341 0 
L 2766 0 
L 2766 531 
Q 2569 213 2275 61 
Q 1981 -91 1556 -91 
Q 1019 -91 701 211 
Q 384 513 384 1019 
Q 384 1609 779 1909 
Q 1175 2209 1959 2209 
L 2766 2209 
L 2766 2266 
Q 2766 2663 2505 2880 
Q 2244 3097 1772 3097 
Q 1472 3097 1187 3025 
Q 903 2953 641 2809 
L 641 3341 
Q 956 3463 1253 3523 
Q 1550 3584 1831 3584 
Q 2591 3584 2966 3190 
Q 3341 2797 3341 1997 
z
" transform="scale(0.015625)"/>
       <path id="DejaVuSans-74" d="M 1172 4494 
L 1172 3500 
L 2356 3500 
L 2356 3053 
L 1172 3053 
L 1172 1153 
Q 1172 725 1289 603 
Q 1406 481 1766 481 
L 2356 481 
L 2356 0 
L 1766 0 
Q 1100 0 847 248 
Q 594 497 594 1153 
L 594 3053 
L 172 3053 
L 172 3500 
L 594 3500 
L 594 4494 
L 1172 4494 
z
" transform="scale(0.015625)"/>
       <path id="DejaVuSans-69" d="M 603 3500 
L 1178 3500 
L 1178 0 
L 603 0 
L 603 3500 
z
M 603 4863 
L 1178 4863 
L 1178 4134 
L 603 4134 
L 603 4863 
z
" transform="scale(0.015625)"/>
       <path id="DejaVuSans-6f" d="M 1959 3097 
Q 1497 3097 1228 2736 
Q 959 2375 959 1747 
Q 959 1119 1226 758 
Q 1494 397 1959 397 
Q 2419 397 2687 759 
Q 2956 1122 2956 1747 
Q 2956 2369 2687 2733 
Q 2419 3097 1959 3097 
z
M 1959 3584 
Q 2709 3584 3137 3096 
Q 3566 2609 3566 1747 
Q 3566 888 3137 398 
Q 2709 -91 1959 -91 
Q 1206 -91 779 398 
Q 353 888 353 1747 
Q 353 2609 779 3096 
Q 1206 3584 1959 3584 
z
" transform="scale(0.015625)"/>
      </defs>
      <use xlink:href="#DejaVuSans-47"/>
      <use xlink:href="#DejaVuSans-65" transform="translate(77.490234 0)"/>
      <use xlink:href="#DejaVuSans-6e" transform="translate(139.013672 0)"/>
      <use xlink:href="#DejaVuSans-65" transform="translate(202.392578 0)"/>
      <use xlink:href="#DejaVuSans-72" transform="translate(263.916016 0)"/>
      <use xlink:href="#DejaVuSans-61" transform="translate(305.029297 0)"/>
      <use xlink:href="#DejaVuSans-74" transform="translate(366.308594 0)"/>
      <use xlink:href="#DejaVuSans-69" transform="translate(405.517578 0)"/>
      <use xlink:href="#DejaVuSans-6f" transform="translate(433.300781 0)"/>
      <use xlink:href="#DejaVuSans-6e" transform="translate(494.482422 0)"/>
     </g>
    </g>
   </g>
   <g id="matplotlib.axis_2">
    <g id="ytick_1">
     <g id="line2d_7">
      <defs>
       <path id="m5f2ac0d4eb" d="M 0 0 
L -3.5 0 
" style="stroke: #000000; stroke-width: 0.8"/>
      </defs>
      <g>
       <use xlink:href="#m5f2ac0d4eb" x="57.6" y="300.335634" style="stroke: #000000; stroke-width: 0.8"/>
      </g>
     </g>
     <g id="text_8">
      <!-- 0 -->
      <g transform="translate(44.2375 304.134852) scale(0.1 -0.1)">
       <use xlink:href="#DejaVuSans-30"/>
      </g>
     </g>
    </g>
    <g id="ytick_2">
     <g id="line2d_8">
      <g>
       <use xlink:href="#m5f2ac0d4eb" x="57.6" y="254.167695" style="stroke: #000000; stroke-width: 0.8"/>
      </g>
     </g>
     <g id="text_9">
      <!-- 20 -->
      <g transform="translate(37.875 257.966913) scale(0.1 -0.1)">
       <use xlink:href="#DejaVuSans-32"/>
       <use xlink:href="#DejaVuSans-30" transform="translate(63.623047 0)"/>
      </g>
     </g>
    </g>
    <g id="ytick_3">
     <g id="line2d_9">
      <g>
       <use xlink:href="#m5f2ac0d4eb" x="57.6" y="207.999756" style="stroke: #000000; stroke-width: 0.8"/>
      </g>
     </g>
     <g id="text_10">
      <!-- 40 -->
      <g transform="translate(37.875 211.798974) scale(0.1 -0.1)">
       <use xlink:href="#DejaVuSans-34"/>
       <use xlink:href="#DejaVuSans-30" transform="translate(63.623047 0)"/>
      </g>
     </g>
    </g>
    <g id="ytick_4">
     <g id="line2d_10">
      <g>
       <use xlink:href="#m5f2ac0d4eb" x="57.6" y="161.831817" style="stroke: #000000; stroke-width: 0.8"/>
      </g>
     </g>
     <g id="text_11">
      <!-- 60 -->
      <g transform="translate(37.875 165.631036) scale(0.1 -0.1)">
       <use xlink:href="#DejaVuSans-36"/>
       <use xlink:href="#DejaVuSans-30" transform="translate(63.623047 0)"/>
      </g>
     </g>
    </g>
    <g id="ytick_5">
     <g id="line2d_11">
      <g>
       <use xlink:href="#m5f2ac0d4eb" x="57.6" y="115.663878" style="stroke: #000000; stroke-width: 0.8"/>
      </g>
     </g>
     <g id="text_12">
      <!-- 80 -->
      <g transform="translate(37.875 119.463097) scale(0.1 -0.1)">
       <use xlink:href="#DejaVuSans-38"/>
       <use xlink:href="#DejaVuSans-30" transform="translate(63.623047 0)"/>
      </g>
     </g>
    </g>
    <g id="ytick_6">
     <g id="line2d_12">
      <g>
       <use xlink:href="#m5f2ac0d4eb" x="57.6" y="69.495939" style="stroke: #000000; stroke-width: 0.8"/>
      </g>
     </g>
     <g id="text_13">
      <!-- 100 -->
      <g transform="translate(31.5125 73.295158) scale(0.1 -0.1)">
       <use xlink:href="#DejaVuSans-31"/>
       <use xlink:href="#DejaVuSans-30" transform="translate(63.623047 0)"/>
       <use xlink:href="#DejaVuSans-30" transform="translate(127.246094 0)"/>
      </g>
     </g>
    </g>
    <g id="text_14">
     <!-- Mean fitness (avg over run) -->
     <g transform="translate(25.432812 243.714719) rotate(-90) scale(0.1 -0.1)">
      <defs>
       <path id="DejaVuSans-4d" d="M 628 4666 
L 1569 4666 
L 2759 1491 
L 3956 4666 
L 4897 4666 
L 4897 0 
L 4281 0 
L 4281 4097 
L 3078 897 
L 2444 897 
L 1241 4097 
L 1241 0 
L 628 0 
L 628 4666 
z
" transform="scale(0.015625)"/>
       <path id="DejaVuSans-20" transform="scale(0.015625)"/>
       <path id="DejaVuSans-66" d="M 2375 4863 
L 2375 4384 
L 1825 4384 
Q 1516 4384 1395 4259 
Q 1275 4134 1275 3809 
L 1275 3500 
L 2222 3500 
L 2222 3053 
L 1275 3053 
L 1275 0 
L 697 0 
L 697 3053 
L 147 3053 
L 147 3500 
L 697 3500 
L 697 3744 
Q 697 4328 969 4595 
Q 1241 4863 1831 4863 
L 2375 4863 
z
" transform="scale(0.015625)"/>
       <path id="DejaVuSans-73" d="M 2834 3397 
L 2834 2853 
Q 2591 2978 2328 3040 
Q 2066 3103 1784 3103 
Q 1356 3103 1142 2972 
Q 928 2841 928 2578 
Q 928 2378 1081 2264 
Q 1234 2150 1697 2047 
L 1894 2003 
Q 2506 1872 2764 1633 
Q 3022 1394 3022 966 
Q 3022 478 2636 193 
Q 2250 -91 1575 -91 
Q 1294 -91 989 -36 
Q 684 19 347 128 
L 347 722 
Q 666 556 975 473 
Q 1284 391 1588 391 
Q 1994 391 2212 530 
Q 2431 669 2431 922 
Q 2431 1156 2273 1281 
Q 2116 1406 1581 1522 
L 1381 1569 
Q 847 1681 609 1914 
Q 372 2147 372 2553 
Q 372 3047 722 3315 
Q 1072 3584 1716 3584 
Q 2034 3584 2315 3537 
Q 2597 3491 2834 3397 
z
" transform="scale(0.015625)"/>
       <path id="DejaVuSans-28" d="M 1984 4856 
Q 1566 4138 1362 3434 
Q 1159 2731 1159 2009 
Q 1159 1288 1364 580 
Q 1569 -128 1984 -844 
L 1484 -844 
Q 1016 -109 783 600 
Q 550 1309 550 2009 
Q 550 2706 781 3412 
Q 1013 4119 1484 4856 
L 1984 4856 
z
" transform="scale(0.015625)"/>
       <path id="DejaVuSans-76" d="M 191 3500 
L 800 3500 
L 1894 563 
L 2988 3500 
L 3597 3500 
L 2284 0 
L 1503 0 
L 191 3500 
z
" transform="scale(0.015625)"/>
       <path id="DejaVuSans-67" d="M 2906 1791 
Q 2906 2416 2648 2759 
Q 2391 3103 1925 3103 
Q 1463 3103 1205 2759 
Q 947 2416 947 1791 
Q 947 1169 1205 825 
Q 1463 481 1925 481 
Q 2391 481 2648 825 
Q 2906 1169 2906 1791 
z
M 3481 434 
Q 3481 -459 3084 -895 
Q 2688 -1331 1869 -1331 
Q 1566 -1331 1297 -1286 
Q 1028 -1241 775 -1147 
L 775 -588 
Q 1028 -725 1275 -790 
Q 1522 -856 1778 -856 
Q 2344 -856 2625 -561 
Q 2906 -266 2906 331 
L 2906 616 
Q 2728 306 2450 153 
Q 2172 0 1784 0 
Q 1141 0 747 490 
Q 353 981 353 1791 
Q 353 2603 747 3093 
Q 1141 3584 1784 3584 
Q 2172 3584 2450 3431 
Q 2728 3278 2906 2969 
L 2906 3500 
L 3481 3500 
L 3481 434 
z
" transform="scale(0.015625)"/>
       <path id="DejaVuSans-75" d="M 544 1381 
L 544 3500 
L 1119 3500 
L 1119 1403 
Q 1119 906 1312 657 
Q 1506 409 1894 409 
Q 2359 409 2629 706 
Q 2900 1003 2900 1516 
L 2900 3500 
L 3475 3500 
L 3475 0 
L 2900 0 
L 2900 538 
Q 2691 219 2414 64 
Q 2138 -91 1772 -91 
Q 1169 -91 856 284 
Q 544 659 544 1381 
z
M 1991 3584 
L 1991 3584 
z
" transform="scale(0.015625)"/>
       <path id="DejaVuSans-29" d="M 513 4856 
L 1013 4856 
Q 1481 4119 1714 3412 
Q 1947 2706 1947 2009 
Q 1947 1309 1714 600 
Q 1481 -109 1013 -844 
L 513 -844 
Q 928 -128 1133 580 
Q 1338 1288 1338 2009 
Q 1338 2731 1133 3434 
Q 928 4138 513 4856 
z
" transform="scale(0.015625)"/>
      </defs>
      <use xlink:href="#DejaVuSans-4d"/>
      <use xlink:href="#DejaVuSans-65" transform="translate(86.279297 0)"/>
      <use xlink:href="#DejaVuSans-61" transform="translate(147.802734 0)"/>
      <use xlink:href="#DejaVuSans-6e" transform="translate(209.082031 0)"/>
      <use xlink:href="#DejaVuSans-20" transform="translate(272.460938 0)"/>
      <use xlink:href="#DejaVuSans-66" transform="translate(304.248047 0)"/>
      <use xlink:href="#DejaVuSans-69" transform="translate(339.453125 0)"/>
      <use xlink:href="#DejaVuSans-74" transform="translate(367.236328 0)"/>
      <use xlink:href="#DejaVuSans-6e" transform="translate(406.445312 0)"/>
      <use xlink:href="#DejaVuSans-65" transform="translate(469.824219 0)"/>
      <use xlink:href="#DejaVuSans-73" transform="translate(531.347656 0)"/>
      <use xlink:href="#DejaVuSans-73" transform="translate(583.447266 0)"/>
      <use xlink:href="#DejaVuSans-20" transform="translate(635.546875 0)"/>
      <use xlink:href="#DejaVuSans-28" transform="translate(667.333984 0)"/>
      <use xlink:href="#DejaVuSans-61" transform="translate(706.347656 0)"/>
      <use xlink:href="#DejaVuSans-76" transform="translate(767.626953 0)"/>
      <use xlink:href="#DejaVuSans-67" transform="translate(826.806641 0)"/>
      <use xlink:href="#DejaVuSans-20" transform="translate(890.283203 0)"/>
      <use xlink:href="#DejaVuSans-6f" transform="translate(922.070312 0)"/>
      <use xlink:href="#DejaVuSans-76" transform="translate(983.251953 0)"/>
      <use xlink:href="#DejaVuSans-65" transform="translate(1042.431641 0)"/>
      <use xlink:href="#DejaVuSans-72" transform="translate(1103.955078 0)"/>
      <use xlink:href="#DejaVuSans-20" transform="translate(1145.068359 0)"/>
      <use xlink:href="#DejaVuSans-72" transform="translate(1176.855469 0)"/>
      <use xlink:href="#DejaVuSans-75" transform="translate(1217.96875 0)"/>
      <use xlink:href="#DejaVuSans-6e" transform="translate(1281.347656 0)"/>
      <use xlink:href="#DejaVuSans-29" transform="translate(1344.726562 0)"/>
     </g>
    </g>
   </g>
   <g id="line2d_13">
    <path d="M 73.832727 286.485252 
L 74.157382 286.716092 
L 74.482036 289.255328 
L 74.806691 292.025405 
L 75.131345 294.333802 
L 75.456 294.102962 
L 75.780655 292.025405 
L 76.105309 295.25716 
L 76.429964 295.488 
" clip-path="url(#p6a820cb5ce)" style="fill: none; stroke: #1f77b4; stroke-width: 1.5; stroke-linecap: square"/>
   </g>
   <g id="line2d_14">
    <path d="M 73.832727 279.560061 
L 74.157382 279.329221 
L 74.482036 281.868458 
L 74.806691 283.022656 
L 75.131345 283.022656 
L 75.456 284.407695 
L 75.780655 286.946931 
L 76.105309 286.254412 
L 76.429964 290.640366 
L 76.754618 290.178687 
L 77.403927 281.637618 
L 77.728582 283.484336 
L 78.053236 286.254412 
L 78.377891 285.331053 
L 78.702545 283.022656 
L 79.0272 285.561893 
L 79.676509 288.331969 
L 80.001164 289.255328 
L 80.325818 286.485252 
L 80.650473 287.408611 
L 80.975127 286.946931 
L 81.299782 285.561893 
L 81.624436 290.409527 
L 81.949091 287.63945 
L 82.273745 290.409527 
L 82.5984 289.486168 
L 82.923055 286.485252 
L 83.247709 288.793649 
L 83.572364 287.177771 
L 83.897018 288.793649 
L 84.221673 288.10113 
L 84.546327 286.946931 
L 84.870982 288.562809 
L 85.195636 286.485252 
L 85.520291 289.486168 
L 85.844945 290.409527 
L 86.1696 290.409527 
L 86.494255 289.255328 
L 87.143564 290.409527 
L 87.468218 289.947847 
L 87.792873 289.024489 
L 88.117527 288.793649 
L 88.442182 288.331969 
L 88.766836 290.409527 
L 89.091491 288.562809 
L 89.416145 291.563725 
L 89.7408 291.563725 
L 90.065455 290.871206 
L 90.390109 287.87029 
L 90.714764 289.717008 
L 91.039418 287.63945 
L 91.364073 287.87029 
L 91.688727 290.640366 
L 92.013382 288.793649 
L 92.338036 288.331969 
L 92.662691 289.717008 
L 92.987345 289.947847 
L 93.312 289.947847 
L 93.636655 289.486168 
L 93.961309 289.947847 
L 94.285964 288.562809 
L 94.610618 288.331969 
L 94.935273 287.87029 
L 95.259927 285.331053 
L 95.909236 290.640366 
L 96.558545 287.63945 
L 96.8832 287.408611 
L 97.207855 288.793649 
L 97.532509 287.63945 
L 97.857164 287.87029 
L 98.181818 288.331969 
L 98.506473 289.717008 
L 98.831127 289.486168 
L 99.155782 285.561893 
L 99.480436 288.10113 
L 99.805091 287.177771 
L 100.129745 285.792733 
L 100.4544 286.946931 
L 100.779055 286.023573 
L 101.103709 287.408611 
L 101.428364 290.178687 
L 102.077673 288.10113 
L 102.402327 287.408611 
L 102.726982 290.178687 
L 103.051636 290.871206 
L 103.376291 289.947847 
L 103.700945 286.716092 
L 104.0256 289.486168 
L 104.350255 289.486168 
L 104.674909 283.484336 
L 104.999564 287.177771 
L 105.324218 286.485252 
L 105.648873 287.63945 
L 105.973527 289.255328 
L 106.298182 291.794565 
L 106.622836 288.562809 
L 106.947491 289.255328 
L 107.272145 287.63945 
L 107.5968 288.10113 
L 107.921455 287.177771 
L 108.246109 290.178687 
L 108.570764 286.254412 
L 108.895418 290.409527 
L 109.220073 289.947847 
L 109.544727 287.177771 
L 109.869382 289.947847 
L 110.194036 289.255328 
L 110.518691 287.408611 
L 110.843345 284.869374 
L 111.168 286.946931 
L 111.492655 286.946931 
L 111.817309 289.024489 
L 112.141964 289.717008 
L 112.466618 286.254412 
L 112.791273 287.63945 
L 113.115927 290.409527 
L 113.440582 289.255328 
L 113.765236 290.178687 
L 114.089891 288.793649 
L 114.414545 289.255328 
L 114.7392 285.792733 
L 115.063855 286.023573 
L 115.388509 291.102046 
L 115.713164 289.486168 
L 116.037818 286.946931 
L 116.362473 287.87029 
L 116.687127 290.178687 
L 117.011782 289.486168 
L 117.336436 287.63945 
L 117.661091 288.793649 
L 117.985745 289.255328 
L 118.3104 289.947847 
L 118.635055 288.793649 
L 118.959709 286.023573 
L 119.284364 290.409527 
L 119.609018 291.102046 
L 119.933673 292.256244 
L 120.582982 287.177771 
L 120.907636 286.946931 
L 121.232291 288.10113 
L 121.556945 287.87029 
L 121.8816 288.562809 
L 122.206255 287.87029 
L 122.530909 289.486168 
L 122.855564 288.331969 
L 123.504873 291.794565 
L 123.829527 289.947847 
L 124.154182 290.178687 
L 124.478836 287.177771 
L 124.803491 286.485252 
L 125.128145 289.024489 
L 125.4528 287.408611 
L 126.102109 288.331969 
L 126.426764 287.408611 
L 126.751418 291.563725 
L 127.076073 291.563725 
L 127.400727 292.487084 
L 127.725382 288.331969 
L 128.050036 292.256244 
L 128.374691 289.486168 
L 129.024 289.024489 
L 129.997964 292.256244 
L 130.322618 291.102046 
L 130.647273 287.63945 
L 130.971927 287.408611 
L 131.621236 287.87029 
L 131.945891 289.947847 
L 132.270545 293.410443 
L 132.919855 288.793649 
L 133.244509 288.331969 
L 133.569164 287.177771 
L 133.893818 287.87029 
L 134.218473 290.871206 
L 134.543127 286.485252 
L 134.867782 289.717008 
L 135.192436 289.255328 
L 135.517091 290.178687 
L 135.841745 289.024489 
L 136.1664 289.486168 
L 136.815709 291.102046 
L 137.140364 289.024489 
L 137.789673 287.408611 
L 138.114327 287.177771 
L 138.438982 291.102046 
L 138.763636 291.102046 
L 139.088291 288.793649 
L 139.412945 288.10113 
L 139.7376 288.562809 
L 140.062255 285.792733 
L 140.386909 289.717008 
L 140.711564 291.794565 
L 141.036218 286.716092 
L 141.360873 291.563725 
L 141.685527 290.178687 
L 142.010182 286.485252 
L 142.334836 285.792733 
L 142.659491 289.024489 
L 142.984145 291.102046 
L 143.3088 288.10113 
L 143.633455 290.409527 
L 143.958109 291.332885 
L 144.282764 289.024489 
L 144.607418 285.792733 
L 144.932073 286.716092 
L 145.581382 290.178687 
L 145.906036 289.255328 
L 146.230691 286.485252 
L 146.555345 289.024489 
L 146.88 287.408611 
L 147.204655 290.871206 
L 147.529309 290.871206 
L 148.178618 286.946931 
L 148.503273 288.10113 
L 148.827927 291.332885 
L 149.152582 289.717008 
L 149.477236 291.332885 
L 150.126545 289.024489 
L 150.4512 289.024489 
L 150.775855 287.408611 
L 151.100509 289.717008 
L 151.425164 290.640366 
L 151.749818 292.025405 
L 152.074473 290.871206 
L 152.399127 291.102046 
L 152.723782 287.177771 
L 153.048436 287.87029 
L 153.373091 286.716092 
L 153.697745 289.255328 
L 154.0224 290.178687 
L 154.347055 291.563725 
L 154.671709 291.563725 
L 154.996364 293.641282 
L 155.321018 291.332885 
L 155.645673 290.409527 
L 156.294982 291.794565 
L 156.619636 289.717008 
L 156.944291 289.717008 
L 157.268945 292.256244 
L 157.5936 290.178687 
L 157.918255 291.563725 
L 158.242909 290.640366 
L 158.567564 290.640366 
L 158.892218 288.562809 
L 159.216873 291.794565 
L 159.541527 288.562809 
L 159.866182 287.63945 
L 160.190836 289.255328 
L 160.515491 288.10113 
L 160.840145 289.255328 
L 161.1648 289.717008 
L 161.489455 289.255328 
L 161.814109 290.871206 
L 162.138764 290.178687 
L 162.463418 288.793649 
L 162.788073 292.487084 
L 163.112727 291.102046 
L 163.437382 294.102962 
L 163.762036 292.025405 
L 164.086691 291.332885 
L 164.411345 292.025405 
L 164.736 291.102046 
L 165.060655 287.87029 
L 165.385309 290.178687 
L 165.709964 289.024489 
L 166.034618 287.408611 
L 166.359273 290.409527 
L 167.008582 289.486168 
L 167.333236 289.255328 
L 167.657891 290.871206 
L 167.982545 289.947847 
L 168.631855 291.102046 
L 168.956509 291.102046 
L 169.281164 291.563725 
L 169.605818 289.255328 
L 169.930473 288.793649 
L 170.255127 292.025405 
L 170.579782 291.102046 
L 170.904436 289.255328 
L 171.553745 292.717924 
L 171.8784 289.947847 
L 172.203055 288.562809 
L 172.527709 289.024489 
L 172.852364 289.255328 
L 173.177018 284.638534 
L 173.501673 285.792733 
L 174.150982 289.486168 
L 174.475636 288.562809 
L 174.800291 292.025405 
L 175.4496 288.331969 
L 175.774255 288.331969 
L 176.098909 289.486168 
L 176.423564 289.255328 
L 176.748218 291.794565 
L 177.072873 289.717008 
L 177.397527 289.947847 
L 177.722182 289.255328 
L 178.046836 289.947847 
L 178.371491 289.717008 
L 179.0208 290.178687 
L 179.345455 289.947847 
L 179.670109 288.331969 
L 179.994764 288.793649 
L 180.644073 291.563725 
L 180.968727 291.794565 
L 181.293382 291.794565 
L 181.618036 291.332885 
L 182.267345 291.332885 
L 182.592 289.947847 
L 182.916655 290.871206 
L 183.241309 289.024489 
L 183.565964 292.256244 
L 183.890618 288.793649 
L 184.215273 291.563725 
L 184.539927 293.179603 
L 184.864582 291.102046 
L 185.189236 289.947847 
L 185.513891 290.871206 
L 185.838545 289.486168 
L 186.1632 294.102962 
L 186.487855 293.410443 
L 186.812509 292.256244 
L 187.137164 290.640366 
L 187.461818 289.947847 
L 187.786473 290.871206 
L 188.111127 292.487084 
L 188.760436 288.793649 
L 189.085091 290.640366 
L 189.409745 289.717008 
L 189.7344 293.641282 
L 190.059055 289.947847 
L 190.383709 292.717924 
L 190.708364 289.255328 
L 191.033018 291.794565 
L 191.357673 292.256244 
L 191.682327 291.102046 
L 192.006982 291.332885 
L 192.331636 292.487084 
L 192.980945 290.871206 
L 193.3056 292.948763 
L 193.630255 291.794565 
L 193.954909 291.332885 
L 194.279564 291.563725 
L 194.604218 289.024489 
L 194.928873 290.871206 
L 195.253527 290.640366 
L 195.578182 289.717008 
L 195.902836 287.408611 
L 196.227491 288.562809 
L 196.552145 288.793649 
L 196.8768 288.562809 
L 197.201455 288.793649 
L 197.526109 291.102046 
L 197.850764 290.871206 
L 198.175418 292.025405 
L 198.500073 291.332885 
L 198.824727 291.332885 
L 199.149382 286.485252 
L 199.474036 288.793649 
L 199.798691 288.793649 
L 200.123345 290.178687 
L 200.448 287.87029 
L 201.097309 288.331969 
L 201.421964 289.486168 
L 201.746618 290.178687 
L 202.071273 289.717008 
L 202.395927 290.409527 
L 202.720582 292.487084 
L 203.045236 292.948763 
L 203.369891 292.948763 
L 203.694545 290.871206 
L 204.0192 292.025405 
L 204.668509 290.178687 
L 204.993164 290.409527 
L 205.317818 289.024489 
L 205.642473 284.638534 
L 205.967127 290.178687 
L 206.291782 291.563725 
L 206.616436 290.640366 
L 206.941091 290.178687 
L 207.265745 290.640366 
L 207.5904 288.331969 
L 207.915055 290.178687 
L 208.239709 288.793649 
L 208.889018 287.408611 
L 209.213673 289.947847 
L 209.538327 289.024489 
L 209.862982 287.63945 
L 210.187636 290.871206 
L 210.512291 290.409527 
L 210.836945 289.255328 
L 211.486255 290.409527 
L 211.810909 286.716092 
L 212.135564 284.407695 
L 213.109527 289.486168 
L 213.758836 288.562809 
L 214.083491 290.871206 
L 214.408145 291.102046 
L 214.7328 291.794565 
L 215.057455 293.410443 
L 215.382109 288.562809 
L 215.706764 289.717008 
L 216.031418 288.331969 
L 216.356073 289.947847 
L 216.680727 293.641282 
L 217.005382 289.717008 
L 217.330036 287.63945 
L 217.654691 291.332885 
L 217.979345 290.640366 
L 218.304 288.331969 
L 218.628655 290.640366 
L 218.953309 292.025405 
L 219.927273 288.331969 
L 220.251927 293.641282 
L 220.576582 291.794565 
L 220.901236 289.024489 
L 221.225891 289.717008 
L 221.550545 291.332885 
L 221.8752 289.947847 
L 222.199855 285.561893 
L 222.524509 289.717008 
L 222.849164 287.87029 
L 223.173818 289.717008 
L 223.498473 290.640366 
L 223.823127 288.10113 
L 224.147782 289.024489 
L 224.472436 291.102046 
L 224.797091 288.793649 
L 225.121745 289.717008 
L 225.4464 291.563725 
L 225.771055 289.947847 
L 226.095709 286.485252 
L 226.420364 290.409527 
L 226.745018 291.794565 
L 227.069673 290.409527 
L 227.394327 292.948763 
L 227.718982 292.948763 
L 228.043636 290.409527 
L 228.368291 294.564641 
L 228.692945 292.948763 
L 229.0176 289.486168 
L 229.342255 289.717008 
L 229.666909 291.102046 
L 229.991564 287.408611 
L 230.316218 287.63945 
L 230.640873 292.717924 
L 230.965527 292.948763 
L 231.614836 286.485252 
L 231.939491 286.485252 
L 232.264145 289.717008 
L 232.5888 289.947847 
L 232.913455 286.716092 
L 233.238109 288.562809 
L 233.562764 289.486168 
L 233.887418 289.717008 
L 234.212073 292.256244 
L 234.536727 288.331969 
L 234.861382 289.717008 
L 235.510691 286.485252 
L 235.835345 289.255328 
L 236.484655 292.256244 
L 236.809309 291.794565 
L 237.133964 292.025405 
L 237.458618 288.793649 
L 237.783273 288.793649 
L 238.107927 286.254412 
L 238.432582 287.408611 
L 238.757236 289.255328 
L 239.081891 289.486168 
L 239.406545 289.947847 
L 239.7312 290.871206 
L 240.055855 288.562809 
L 240.380509 290.409527 
L 240.705164 290.871206 
L 241.029818 290.409527 
L 241.354473 289.486168 
L 241.679127 290.409527 
L 242.003782 288.793649 
L 242.328436 291.563725 
L 242.653091 288.793649 
L 242.977745 292.948763 
L 243.3024 291.332885 
L 243.627055 291.332885 
L 243.951709 289.947847 
L 244.276364 286.946931 
L 244.601018 288.331969 
L 244.925673 287.177771 
L 245.250327 290.640366 
L 245.574982 292.256244 
L 245.899636 289.255328 
L 246.224291 289.255328 
L 246.548945 288.793649 
L 246.8736 287.87029 
L 247.198255 285.792733 
L 247.522909 284.869374 
L 247.847564 285.561893 
L 248.172218 286.716092 
L 248.496873 288.562809 
L 248.821527 288.331969 
L 249.146182 292.948763 
L 249.470836 292.487084 
L 250.120145 287.63945 
L 250.4448 291.332885 
L 250.769455 293.410443 
L 251.094109 290.871206 
L 251.418764 290.640366 
L 252.068073 290.640366 
L 252.392727 289.486168 
L 252.717382 289.255328 
L 253.042036 288.331969 
L 253.366691 288.793649 
L 253.691345 288.562809 
L 254.016 289.486168 
L 254.340655 288.331969 
L 254.989964 290.640366 
L 255.639273 288.793649 
L 256.288582 290.871206 
L 256.613236 287.87029 
L 256.937891 288.10113 
L 257.262545 288.793649 
L 257.5872 287.63945 
L 257.911855 290.409527 
L 258.236509 291.332885 
L 258.561164 289.486168 
L 258.885818 289.024489 
L 259.210473 291.332885 
L 259.535127 288.562809 
L 259.859782 288.562809 
L 260.184436 290.178687 
L 260.509091 287.87029 
L 260.833745 290.640366 
L 261.1584 289.024489 
L 261.483055 288.562809 
L 261.807709 289.486168 
L 262.132364 289.255328 
L 262.457018 289.717008 
L 262.781673 289.717008 
L 263.106327 290.178687 
L 263.430982 289.717008 
L 263.755636 289.717008 
L 264.080291 286.716092 
L 264.404945 291.332885 
L 264.7296 289.024489 
L 265.054255 289.486168 
L 265.378909 286.485252 
L 265.703564 289.947847 
L 266.028218 289.255328 
L 266.352873 289.486168 
L 266.677527 288.10113 
L 267.002182 291.794565 
L 267.326836 289.024489 
L 267.651491 291.102046 
L 267.976145 288.793649 
L 268.3008 288.793649 
L 268.625455 287.63945 
L 268.950109 290.871206 
L 269.274764 292.256244 
L 269.599418 289.717008 
L 269.924073 289.486168 
L 270.248727 293.410443 
L 270.573382 290.640366 
L 270.898036 289.024489 
L 271.222691 288.793649 
L 271.547345 291.332885 
L 272.196655 288.562809 
L 272.521309 288.793649 
L 272.845964 289.486168 
L 273.170618 290.871206 
L 273.495273 289.947847 
L 273.819927 286.946931 
L 274.144582 287.177771 
L 274.469236 291.102046 
L 274.793891 291.794565 
L 275.118545 290.871206 
L 275.4432 292.948763 
L 275.767855 291.102046 
L 276.092509 290.409527 
L 276.417164 288.10113 
L 276.741818 291.563725 
L 277.066473 290.409527 
L 277.391127 290.178687 
L 277.715782 291.794565 
L 278.040436 286.485252 
L 278.365091 287.177771 
L 278.689745 291.102046 
L 279.0144 292.256244 
L 279.339055 290.640366 
L 279.663709 290.640366 
L 279.988364 290.871206 
L 280.313018 288.562809 
L 280.637673 290.640366 
L 280.962327 288.562809 
L 281.286982 288.562809 
L 281.611636 292.487084 
L 281.936291 288.562809 
L 282.260945 286.946931 
L 282.5856 287.177771 
L 282.910255 289.717008 
L 283.234909 289.486168 
L 283.559564 287.87029 
L 283.884218 290.640366 
L 284.208873 289.255328 
L 284.533527 288.793649 
L 284.858182 289.486168 
L 285.182836 291.102046 
L 285.507491 291.332885 
L 285.832145 286.716092 
L 286.1568 290.871206 
L 286.481455 292.256244 
L 287.130764 288.10113 
L 287.455418 290.640366 
L 287.780073 288.331969 
L 288.104727 288.793649 
L 288.754036 290.409527 
L 289.078691 288.10113 
L 289.403345 290.178687 
L 289.728 286.946931 
L 290.052655 286.023573 
L 290.701964 288.562809 
L 291.026618 290.871206 
L 291.351273 290.178687 
L 291.675927 290.640366 
L 292.000582 287.63945 
L 292.325236 288.10113 
L 292.649891 292.717924 
L 292.974545 293.410443 
L 293.623855 290.178687 
L 293.948509 292.256244 
L 294.273164 289.255328 
L 294.597818 292.487084 
L 294.922473 290.640366 
L 295.247127 291.332885 
L 295.896436 287.408611 
L 296.221091 290.178687 
L 296.545745 287.87029 
L 296.8704 290.178687 
L 297.195055 286.254412 
L 297.519709 287.408611 
L 297.844364 287.63945 
L 298.169018 290.640366 
L 298.493673 289.717008 
L 298.818327 290.409527 
L 299.142982 292.025405 
L 299.467636 291.794565 
L 299.792291 294.102962 
L 300.116945 289.255328 
L 300.4416 293.179603 
L 300.766255 291.794565 
L 301.415564 292.256244 
L 301.740218 289.486168 
L 302.064873 290.409527 
L 302.714182 286.946931 
L 303.038836 289.024489 
L 303.363491 292.487084 
L 303.688145 292.025405 
L 304.0128 291.102046 
L 304.337455 290.640366 
L 304.662109 290.640366 
L 304.986764 288.331969 
L 305.311418 288.331969 
L 305.636073 289.717008 
L 306.285382 286.254412 
L 306.610036 286.023573 
L 306.934691 287.408611 
L 307.259345 290.409527 
L 307.584 291.332885 
L 307.908655 292.948763 
L 308.233309 290.871206 
L 308.557964 290.178687 
L 308.882618 288.793649 
L 309.207273 290.178687 
L 309.531927 289.947847 
L 309.856582 290.178687 
L 310.181236 289.255328 
L 310.505891 289.255328 
L 310.830545 288.793649 
L 311.1552 288.10113 
L 311.479855 288.331969 
L 311.804509 288.331969 
L 312.129164 291.563725 
L 312.453818 286.485252 
L 313.103127 291.794565 
L 313.427782 288.562809 
L 313.752436 288.331969 
L 314.401745 291.794565 
L 314.7264 288.562809 
L 315.051055 286.716092 
L 315.375709 292.717924 
L 315.700364 292.487084 
L 316.025018 292.717924 
L 316.349673 289.717008 
L 316.674327 290.640366 
L 316.998982 286.485252 
L 317.323636 286.485252 
L 317.972945 292.717924 
L 318.2976 289.717008 
L 318.622255 291.332885 
L 318.946909 289.024489 
L 319.271564 288.10113 
L 319.596218 288.331969 
L 319.920873 289.024489 
L 320.245527 288.562809 
L 320.894836 293.179603 
L 321.219491 292.025405 
L 321.544145 289.717008 
L 321.8688 289.717008 
L 322.518109 287.177771 
L 322.842764 290.178687 
L 323.167418 289.947847 
L 323.492073 288.793649 
L 323.816727 290.178687 
L 324.141382 288.331969 
L 324.466036 287.177771 
L 324.790691 291.332885 
L 325.115345 289.486168 
L 325.44 289.255328 
L 325.764655 288.793649 
L 326.089309 289.947847 
L 326.413964 286.946931 
L 326.738618 289.024489 
L 327.387927 284.176855 
L 327.712582 287.177771 
L 328.037236 289.024489 
L 328.361891 288.10113 
L 328.686545 285.792733 
L 329.0112 288.331969 
L 329.335855 288.562809 
L 329.660509 288.562809 
L 329.985164 289.947847 
L 330.309818 290.640366 
L 330.634473 289.024489 
L 330.959127 291.102046 
L 331.283782 289.947847 
L 331.608436 289.717008 
L 331.933091 291.332885 
L 332.257745 287.63945 
L 332.5824 288.331969 
L 332.907055 289.486168 
L 333.231709 289.486168 
L 333.556364 286.023573 
L 333.881018 288.331969 
L 334.205673 286.023573 
L 334.530327 286.254412 
L 334.854982 287.63945 
L 335.179636 286.254412 
L 335.504291 286.946931 
L 335.828945 285.331053 
L 336.1536 286.716092 
L 336.478255 284.407695 
L 336.802909 287.177771 
L 337.127564 285.561893 
L 337.452218 287.87029 
L 337.776873 292.948763 
L 338.101527 291.563725 
L 338.426182 289.024489 
L 338.750836 291.563725 
L 339.075491 291.563725 
L 339.400145 291.102046 
L 339.7248 289.255328 
L 340.049455 291.794565 
L 340.374109 289.024489 
L 340.698764 290.409527 
L 341.023418 290.640366 
L 341.348073 287.408611 
L 341.997382 291.794565 
L 342.322036 290.871206 
L 342.971345 287.63945 
L 343.296 286.946931 
L 343.945309 289.717008 
L 344.269964 289.486168 
L 344.594618 290.871206 
L 344.919273 292.948763 
L 345.243927 292.717924 
L 345.568582 288.562809 
L 345.893236 288.331969 
L 346.217891 291.332885 
L 346.542545 290.640366 
L 347.191855 292.717924 
L 347.516509 289.024489 
L 347.841164 289.024489 
L 348.165818 292.256244 
L 348.490473 291.794565 
L 348.815127 293.641282 
L 349.139782 293.410443 
L 349.464436 292.025405 
L 349.789091 289.486168 
L 350.113745 288.793649 
L 350.4384 289.717008 
L 351.412364 287.63945 
L 351.737018 289.024489 
L 352.061673 289.486168 
L 352.386327 290.640366 
L 352.710982 291.102046 
L 353.035636 287.63945 
L 353.360291 288.793649 
L 353.684945 293.872122 
L 354.0096 292.025405 
L 354.334255 292.025405 
L 354.658909 285.561893 
L 355.308218 289.255328 
L 355.632873 287.63945 
L 356.282182 291.794565 
L 356.606836 289.717008 
L 356.931491 290.178687 
L 357.256145 288.793649 
L 357.5808 291.563725 
L 357.905455 288.562809 
L 358.230109 289.947847 
L 358.554764 288.793649 
L 359.204073 285.100214 
L 359.528727 285.792733 
L 359.853382 289.024489 
L 360.178036 288.562809 
L 360.502691 290.409527 
L 360.827345 289.717008 
L 361.152 289.717008 
L 361.476655 291.332885 
L 361.801309 284.869374 
L 362.125964 287.87029 
L 362.450618 287.63945 
L 362.775273 286.023573 
L 363.099927 288.331969 
L 363.424582 288.331969 
L 363.749236 286.023573 
L 364.073891 286.023573 
L 364.398545 285.792733 
L 365.047855 294.333802 
L 365.372509 290.178687 
L 365.697164 290.640366 
L 366.021818 289.024489 
L 366.346473 289.947847 
L 366.671127 292.256244 
L 366.995782 292.948763 
L 367.320436 291.794565 
L 367.645091 292.025405 
L 368.2944 289.717008 
L 368.619055 288.10113 
L 368.943709 290.178687 
L 369.268364 291.102046 
L 369.593018 290.640366 
L 370.242327 288.331969 
L 370.566982 289.717008 
L 371.216291 291.102046 
L 371.540945 287.63945 
L 371.8656 289.717008 
L 372.190255 288.331969 
L 372.514909 290.871206 
L 372.839564 288.331969 
L 373.164218 288.793649 
L 373.488873 286.485252 
L 374.138182 288.10113 
L 374.462836 288.10113 
L 374.787491 289.717008 
L 375.4368 287.87029 
L 375.761455 291.102046 
L 376.086109 290.409527 
L 376.410764 287.87029 
L 376.735418 291.332885 
L 377.060073 290.871206 
L 377.384727 292.256244 
L 377.709382 288.562809 
L 378.034036 288.562809 
L 378.358691 287.63945 
L 379.008 292.717924 
L 379.332655 293.410443 
L 379.657309 288.562809 
L 379.981964 289.255328 
L 380.306618 286.946931 
L 380.631273 289.486168 
L 381.280582 286.946931 
L 382.254545 292.717924 
L 382.5792 291.102046 
L 382.903855 291.794565 
L 383.228509 288.793649 
L 383.553164 291.563725 
L 383.877818 288.562809 
L 384.202473 289.947847 
L 384.527127 290.409527 
L 384.851782 288.793649 
L 385.176436 289.024489 
L 385.501091 288.331969 
L 385.825745 289.486168 
L 386.1504 289.486168 
L 386.799709 290.871206 
L 387.124364 290.871206 
L 387.449018 289.717008 
L 387.773673 292.025405 
L 388.098327 291.332885 
L 388.422982 291.102046 
L 388.747636 289.255328 
L 389.072291 290.409527 
L 389.396945 287.408611 
L 389.7216 290.409527 
L 390.046255 287.177771 
L 390.370909 289.255328 
L 390.695564 293.410443 
L 391.669527 288.793649 
L 392.318836 290.871206 
L 392.643491 291.102046 
L 393.2928 287.87029 
L 393.617455 290.178687 
L 393.942109 288.562809 
L 394.266764 292.256244 
L 394.591418 294.102962 
L 394.916073 292.487084 
L 395.240727 289.024489 
L 395.565382 289.486168 
L 395.890036 292.025405 
L 396.214691 292.948763 
L 396.539345 291.563725 
L 396.864 288.331969 
L 397.188655 289.255328 
L 397.513309 291.794565 
L 397.837964 290.640366 
L 398.162618 292.025405 
L 398.487273 290.871206 
L 398.487273 290.871206 
" clip-path="url(#p6a820cb5ce)" style="fill: none; stroke: #ff7f0e; stroke-width: 1.5; stroke-linecap: square"/>
   </g>
   <g id="line2d_15">
    <path d="M 73.832727 173.373802 
L 74.157382 174.29716 
L 74.482036 184.223267 
L 74.806691 182.607389 
L 75.131345 191.840977 
L 75.456 192.995176 
L 75.780655 199.227847 
L 76.105309 196.457771 
L 76.429964 191.148458 
L 76.754618 191.610137 
L 77.079273 194.149374 
L 77.403927 193.456855 
L 77.728582 187.916702 
L 78.053236 191.610137 
L 78.377891 190.686779 
L 78.702545 192.302656 
L 79.0272 201.074565 
L 79.351855 203.152122 
L 79.676509 197.611969 
L 80.001164 195.303573 
L 80.325818 195.765252 
L 80.650473 193.226015 
L 80.975127 198.766168 
L 81.299782 192.764336 
L 81.624436 198.073649 
L 81.949091 197.15029 
L 82.273745 198.073649 
L 82.5984 198.073649 
L 82.923055 195.072733 
L 83.572364 212.847389 
L 84.221673 207.768916 
L 84.546327 207.999756 
L 85.195636 196.688611 
L 85.520291 200.843725 
L 85.844945 188.147542 
L 86.1696 194.841893 
L 86.494255 207.768916 
L 86.818909 204.768 
L 87.143564 205.691359 
L 87.468218 210.538992 
L 87.792873 209.384794 
L 88.442182 204.99884 
L 89.091491 211.462351 
L 89.416145 200.612885 
L 89.7408 201.305405 
L 90.065455 209.153954 
L 90.390109 207.999756 
L 90.714764 211.231511 
L 91.039418 212.38571 
L 91.364073 208.230595 
L 91.688727 208.230595 
L 92.338036 202.228763 
L 92.662691 202.459603 
L 92.987345 201.536244 
L 93.312 199.458687 
L 93.636655 208.692275 
L 93.961309 202.459603 
L 94.285964 207.999756 
L 94.610618 203.844641 
L 94.935273 201.767084 
L 95.259927 204.768 
L 95.584582 188.147542 
L 95.909236 202.921282 
L 96.558545 198.997008 
L 96.8832 199.689527 
L 97.207855 203.382962 
L 97.532509 202.921282 
L 97.857164 200.151206 
L 98.181818 211.231511 
L 98.506473 209.153954 
L 98.831127 195.996092 
L 99.155782 198.535328 
L 99.480436 199.458687 
L 100.4544 207.076397 
L 100.779055 210.538992 
L 101.103709 212.61655 
L 101.428364 203.844641 
L 101.753018 203.613802 
L 102.077673 205.460519 
L 102.402327 213.309069 
L 102.726982 210.538992 
L 103.051636 216.079145 
L 103.376291 211.462351 
L 103.700945 212.847389 
L 104.0256 205.460519 
L 104.350255 203.844641 
L 104.674909 193.918534 
L 105.324218 208.230595 
L 105.648873 207.768916 
L 105.973527 208.230595 
L 106.298182 212.15487 
L 106.622836 210.769832 
L 106.947491 203.613802 
L 107.272145 202.459603 
L 107.5968 200.151206 
L 107.921455 200.151206 
L 108.246109 206.153038 
L 108.570764 205.922198 
L 108.895418 216.309985 
L 109.220073 216.309985 
L 109.544727 208.923115 
L 109.869382 207.307237 
L 110.194036 209.615634 
L 110.518691 208.230595 
L 110.843345 217.464183 
L 111.168 202.921282 
L 111.492655 207.999756 
L 111.817309 203.844641 
L 112.141964 202.690443 
L 112.466618 197.15029 
L 112.791273 198.304489 
L 113.440582 208.692275 
L 113.765236 200.843725 
L 114.414545 209.153954 
L 114.7392 216.079145 
L 115.063855 216.079145 
L 115.713164 207.538076 
L 116.037818 207.768916 
L 116.362473 204.99884 
L 116.687127 209.615634 
L 117.011782 211.693191 
L 117.661091 204.306321 
L 117.985745 202.921282 
L 118.635055 215.155786 
L 118.959709 213.309069 
L 119.284364 209.384794 
L 119.609018 215.848305 
L 119.933673 214.924947 
L 120.258327 208.230595 
L 120.582982 203.844641 
L 120.907636 203.613802 
L 121.232291 213.309069 
L 121.556945 200.382046 
L 121.8816 198.766168 
L 122.206255 206.153038 
L 122.530909 203.613802 
L 122.855564 209.153954 
L 123.180218 207.076397 
L 123.829527 216.079145 
L 124.154182 208.461435 
L 124.478836 211.693191 
L 124.803491 201.074565 
L 125.128145 206.614718 
L 125.4528 205.691359 
L 125.777455 207.768916 
L 126.102109 211.924031 
L 126.426764 212.847389 
L 126.751418 212.61655 
L 127.076073 210.538992 
L 127.400727 209.384794 
L 127.725382 214.232427 
L 128.050036 209.384794 
L 128.374691 207.076397 
L 128.699345 210.538992 
L 129.024 206.845557 
L 129.348655 205.229679 
L 129.673309 207.999756 
L 129.997964 212.38571 
L 130.322618 207.307237 
L 130.647273 210.308153 
L 130.971927 209.846473 
L 131.296582 213.539908 
L 131.621236 203.613802 
L 131.945891 201.536244 
L 132.270545 207.768916 
L 132.5952 211.000672 
L 132.919855 209.384794 
L 133.244509 210.308153 
L 133.569164 213.770748 
L 133.893818 208.461435 
L 134.218473 204.99884 
L 134.543127 212.61655 
L 134.867782 215.386626 
L 135.517091 197.15029 
L 135.841745 210.769832 
L 136.1664 202.690443 
L 136.491055 207.307237 
L 136.815709 214.694107 
L 137.140364 214.694107 
L 137.465018 207.768916 
L 137.789673 206.153038 
L 138.114327 205.229679 
L 138.438982 212.847389 
L 138.763636 216.079145 
L 139.088291 211.924031 
L 139.412945 213.770748 
L 139.7376 211.924031 
L 140.062255 204.768 
L 140.386909 209.153954 
L 140.711564 207.999756 
L 141.036218 216.309985 
L 141.360873 201.305405 
L 141.685527 211.693191 
L 142.010182 213.539908 
L 142.334836 212.847389 
L 142.659491 210.077313 
L 142.984145 204.075481 
L 143.3088 205.460519 
L 143.633455 210.077313 
L 143.958109 213.078229 
L 144.282764 203.152122 
L 144.607418 211.924031 
L 144.932073 207.307237 
L 145.256727 209.846473 
L 145.581382 213.770748 
L 145.906036 212.38571 
L 146.230691 200.151206 
L 146.555345 207.307237 
L 146.88 207.307237 
L 147.204655 205.229679 
L 147.529309 210.308153 
L 147.853964 210.538992 
L 148.178618 204.53716 
L 148.503273 200.612885 
L 148.827927 198.766168 
L 149.152582 205.691359 
L 149.801891 214.694107 
L 150.126545 214.694107 
L 150.4512 207.076397 
L 150.775855 211.000672 
L 151.100509 210.308153 
L 151.425164 212.61655 
L 151.749818 211.693191 
L 152.399127 202.228763 
L 152.723782 199.227847 
L 153.048436 209.846473 
L 153.373091 209.846473 
L 153.697745 212.38571 
L 154.0224 201.767084 
L 154.347055 205.691359 
L 154.671709 215.155786 
L 154.996364 208.923115 
L 155.321018 197.15029 
L 155.645673 207.307237 
L 155.970327 211.462351 
L 156.294982 203.152122 
L 156.619636 202.228763 
L 156.944291 209.384794 
L 157.268945 211.924031 
L 157.5936 212.847389 
L 158.242909 200.612885 
L 158.567564 202.690443 
L 158.892218 202.690443 
L 159.216873 196.91945 
L 159.541527 208.692275 
L 159.866182 204.768 
L 160.190836 197.611969 
L 160.515491 207.076397 
L 161.1648 217.695023 
L 161.489455 210.077313 
L 161.814109 210.538992 
L 162.138764 208.230595 
L 162.463418 207.768916 
L 162.788073 215.617466 
L 163.437382 200.151206 
L 163.762036 196.688611 
L 164.086691 204.99884 
L 164.411345 208.923115 
L 164.736 221.157618 
L 165.060655 215.386626 
L 165.385309 213.539908 
L 165.709964 214.232427 
L 166.034618 211.693191 
L 166.359273 204.768 
L 166.683927 207.076397 
L 167.008582 214.001588 
L 167.333236 211.462351 
L 167.657891 202.921282 
L 168.3072 210.769832 
L 168.631855 207.076397 
L 168.956509 206.383878 
L 169.281164 204.53716 
L 169.605818 216.079145 
L 169.930473 218.618382 
L 170.255127 208.230595 
L 170.579782 210.538992 
L 170.904436 210.769832 
L 171.229091 210.308153 
L 171.553745 204.768 
L 171.8784 209.846473 
L 172.203055 204.075481 
L 172.527709 205.229679 
L 172.852364 205.460519 
L 173.177018 213.309069 
L 173.501673 208.230595 
L 173.826327 220.23426 
L 174.150982 208.692275 
L 174.475636 211.231511 
L 174.800291 210.769832 
L 175.124945 211.462351 
L 175.4496 203.382962 
L 175.774255 216.309985 
L 176.098909 214.924947 
L 176.423564 208.230595 
L 176.748218 214.694107 
L 177.072873 207.076397 
L 177.397527 202.228763 
L 177.722182 205.922198 
L 178.046836 211.231511 
L 178.696145 207.768916 
L 179.0208 216.309985 
L 179.345455 217.002504 
L 179.670109 205.229679 
L 179.994764 201.305405 
L 180.319418 208.461435 
L 180.644073 208.923115 
L 180.968727 209.846473 
L 181.293382 212.61655 
L 181.618036 208.461435 
L 181.942691 214.924947 
L 182.267345 211.000672 
L 182.592 214.232427 
L 182.916655 206.153038 
L 183.241309 206.153038 
L 183.565964 214.232427 
L 183.890618 213.539908 
L 184.215273 220.695939 
L 184.539927 213.309069 
L 184.864582 218.387542 
L 185.189236 204.99884 
L 185.513891 208.461435 
L 185.838545 206.153038 
L 186.1632 208.461435 
L 186.487855 205.460519 
L 186.812509 216.540824 
L 187.137164 218.387542 
L 187.786473 215.386626 
L 188.435782 208.923115 
L 188.760436 202.690443 
L 189.085091 202.690443 
L 189.409745 205.229679 
L 189.7344 211.924031 
L 190.059055 216.079145 
L 190.383709 215.617466 
L 190.708364 205.691359 
L 191.033018 206.845557 
L 191.357673 204.99884 
L 191.682327 208.923115 
L 192.331636 212.38571 
L 192.656291 211.693191 
L 192.980945 214.463267 
L 193.3056 209.846473 
L 193.630255 211.924031 
L 193.954909 200.151206 
L 194.279564 215.848305 
L 194.604218 208.923115 
L 194.928873 205.229679 
L 195.253527 205.922198 
L 195.578182 215.617466 
L 195.902836 207.999756 
L 196.227491 215.848305 
L 196.552145 208.230595 
L 196.8768 205.922198 
L 197.201455 202.459603 
L 197.526109 205.460519 
L 197.850764 210.077313 
L 198.175418 208.923115 
L 198.500073 214.924947 
L 199.149382 203.152122 
L 199.474036 200.612885 
L 199.798691 212.61655 
L 200.123345 209.384794 
L 200.448 213.539908 
L 200.772655 211.693191 
L 201.097309 204.768 
L 201.421964 209.615634 
L 201.746618 207.999756 
L 202.071273 214.924947 
L 202.395927 209.153954 
L 202.720582 205.460519 
L 203.045236 209.615634 
L 203.369891 211.924031 
L 203.694545 211.924031 
L 204.0192 211.462351 
L 204.343855 210.538992 
L 204.668509 211.231511 
L 204.993164 212.61655 
L 205.317818 208.923115 
L 205.642473 208.692275 
L 205.967127 211.000672 
L 206.616436 201.997924 
L 207.265745 209.615634 
L 207.915055 200.382046 
L 208.239709 214.924947 
L 208.564364 215.155786 
L 208.889018 213.078229 
L 209.213673 206.153038 
L 209.538327 203.613802 
L 209.862982 202.228763 
L 210.187636 208.461435 
L 210.512291 211.000672 
L 210.836945 206.845557 
L 211.1616 208.923115 
L 211.486255 212.61655 
L 211.810909 210.308153 
L 212.135564 217.002504 
L 212.784873 206.153038 
L 213.109527 194.380214 
L 213.434182 192.764336 
L 213.758836 208.692275 
L 214.083491 203.382962 
L 214.408145 202.921282 
L 214.7328 204.99884 
L 215.057455 203.152122 
L 215.382109 207.538076 
L 215.706764 206.153038 
L 216.031418 215.155786 
L 216.680727 212.38571 
L 217.005382 217.002504 
L 217.330036 206.614718 
L 217.654691 211.462351 
L 217.979345 218.849221 
L 218.628655 211.462351 
L 218.953309 218.156702 
L 219.277964 209.153954 
L 219.602618 204.53716 
L 219.927273 202.690443 
L 220.251927 212.15487 
L 220.576582 212.61655 
L 220.901236 214.001588 
L 221.225891 211.462351 
L 221.8752 209.153954 
L 222.199855 215.848305 
L 222.524509 220.00342 
L 222.849164 211.231511 
L 223.173818 210.077313 
L 223.498473 213.770748 
L 223.823127 213.309069 
L 224.147782 209.153954 
L 224.472436 211.924031 
L 224.797091 211.693191 
L 225.121745 210.077313 
L 225.4464 204.99884 
L 225.771055 215.386626 
L 226.095709 218.618382 
L 226.420364 208.923115 
L 226.745018 213.309069 
L 227.718982 195.765252 
L 228.043636 197.15029 
L 228.368291 205.229679 
L 228.692945 206.383878 
L 229.0176 208.692275 
L 229.342255 208.923115 
L 229.666909 208.230595 
L 229.991564 209.153954 
L 230.316218 207.768916 
L 230.640873 207.538076 
L 230.965527 208.461435 
L 231.290182 210.769832 
L 231.614836 203.382962 
L 231.939491 204.075481 
L 232.264145 209.846473 
L 232.913455 215.848305 
L 233.238109 213.309069 
L 233.562764 207.538076 
L 233.887418 205.691359 
L 234.212073 211.462351 
L 234.536727 207.538076 
L 234.861382 211.000672 
L 235.186036 211.462351 
L 235.510691 213.309069 
L 235.835345 205.691359 
L 236.16 215.848305 
L 236.484655 212.61655 
L 236.809309 217.925863 
L 237.133964 211.231511 
L 237.458618 212.38571 
L 238.107927 202.690443 
L 238.432582 214.463267 
L 238.757236 215.386626 
L 239.7312 201.997924 
L 240.055855 206.614718 
L 240.380509 212.847389 
L 240.705164 214.924947 
L 241.029818 197.38113 
L 242.003782 215.386626 
L 242.328436 216.309985 
L 242.977745 207.538076 
L 243.3024 211.924031 
L 243.627055 204.768 
L 243.951709 202.690443 
L 244.276364 202.690443 
L 244.601018 206.614718 
L 244.925673 205.922198 
L 245.250327 199.227847 
L 245.574982 210.077313 
L 245.899636 208.923115 
L 246.224291 210.077313 
L 246.548945 203.152122 
L 246.8736 192.071817 
L 247.198255 205.691359 
L 247.522909 205.922198 
L 247.847564 205.229679 
L 248.172218 208.230595 
L 248.496873 214.694107 
L 248.821527 208.923115 
L 249.146182 216.540824 
L 249.470836 216.771664 
L 249.795491 214.232427 
L 250.120145 208.692275 
L 250.4448 211.924031 
L 250.769455 212.38571 
L 251.094109 207.076397 
L 251.418764 214.924947 
L 251.743418 216.771664 
L 252.068073 207.999756 
L 252.392727 209.384794 
L 252.717382 213.309069 
L 253.042036 213.309069 
L 253.366691 217.002504 
L 253.691345 211.462351 
L 254.016 217.233344 
L 254.340655 211.231511 
L 254.665309 211.693191 
L 255.314618 216.540824 
L 255.963927 207.307237 
L 256.288582 205.922198 
L 256.613236 201.074565 
L 256.937891 211.231511 
L 257.262545 207.999756 
L 257.5872 208.230595 
L 257.911855 211.693191 
L 258.236509 202.690443 
L 258.561164 203.844641 
L 258.885818 203.152122 
L 259.210473 203.613802 
L 259.535127 211.462351 
L 259.859782 223.235176 
L 260.184436 213.539908 
L 260.509091 209.615634 
L 260.833745 210.308153 
L 261.1584 213.078229 
L 261.483055 200.382046 
L 261.807709 203.152122 
L 262.132364 212.38571 
L 262.457018 210.538992 
L 262.781673 216.540824 
L 263.106327 212.38571 
L 263.755636 207.768916 
L 264.080291 212.38571 
L 264.404945 207.307237 
L 264.7296 209.846473 
L 265.054255 207.307237 
L 265.378909 208.692275 
L 265.703564 211.462351 
L 266.028218 212.847389 
L 266.352873 209.615634 
L 266.677527 209.384794 
L 267.002182 214.694107 
L 267.326836 209.384794 
L 267.651491 206.383878 
L 267.976145 207.768916 
L 268.3008 206.153038 
L 268.625455 211.000672 
L 269.274764 204.53716 
L 269.599418 199.920366 
L 269.924073 209.153954 
L 270.248727 210.769832 
L 270.573382 214.001588 
L 270.898036 212.15487 
L 271.222691 211.231511 
L 271.547345 205.229679 
L 271.872 207.768916 
L 272.196655 216.540824 
L 272.521309 208.461435 
L 272.845964 207.768916 
L 273.170618 203.382962 
L 273.495273 207.768916 
L 273.819927 206.383878 
L 274.144582 214.463267 
L 274.469236 214.001588 
L 274.793891 207.307237 
L 275.118545 209.153954 
L 275.4432 205.691359 
L 275.767855 196.226931 
L 276.092509 203.844641 
L 276.417164 217.464183 
L 276.741818 220.00342 
L 277.066473 215.617466 
L 277.391127 209.153954 
L 277.715782 194.380214 
L 278.365091 201.536244 
L 279.0144 194.149374 
L 279.988364 219.310901 
L 280.313018 212.38571 
L 280.637673 218.618382 
L 280.962327 217.002504 
L 281.286982 219.080061 
L 281.611636 211.924031 
L 281.936291 210.769832 
L 282.260945 208.923115 
L 282.5856 214.463267 
L 282.910255 217.695023 
L 283.234909 211.462351 
L 283.559564 211.462351 
L 284.208873 214.924947 
L 284.533527 214.463267 
L 285.182836 199.227847 
L 285.832145 212.847389 
L 286.1568 203.152122 
L 286.481455 198.073649 
L 286.806109 208.230595 
L 287.130764 208.461435 
L 287.780073 217.233344 
L 288.104727 212.38571 
L 288.429382 199.458687 
L 288.754036 201.767084 
L 289.078691 215.848305 
L 289.403345 214.694107 
L 290.377309 201.767084 
L 290.701964 216.771664 
L 291.026618 208.461435 
L 291.351273 217.233344 
L 291.675927 210.308153 
L 292.000582 212.38571 
L 292.325236 211.000672 
L 292.649891 202.921282 
L 292.974545 204.53716 
L 293.2992 211.924031 
L 293.623855 216.771664 
L 294.922473 211.231511 
L 295.247127 214.463267 
L 295.571782 210.538992 
L 295.896436 211.693191 
L 296.221091 218.618382 
L 296.545745 213.539908 
L 296.8704 210.769832 
L 297.195055 203.613802 
L 297.519709 214.694107 
L 297.844364 214.001588 
L 298.169018 220.926779 
L 298.493673 224.158534 
L 298.818327 216.771664 
L 299.142982 204.99884 
L 299.467636 201.997924 
L 299.792291 211.231511 
L 300.116945 211.231511 
L 300.4416 213.078229 
L 300.766255 212.847389 
L 301.090909 211.693191 
L 301.415564 210.077313 
L 301.740218 211.693191 
L 302.064873 214.924947 
L 302.389527 209.615634 
L 302.714182 212.847389 
L 303.038836 211.462351 
L 303.363491 211.231511 
L 303.688145 212.15487 
L 304.0128 213.539908 
L 304.337455 211.000672 
L 304.662109 205.229679 
L 304.986764 204.99884 
L 305.311418 215.617466 
L 305.636073 220.926779 
L 305.960727 210.308153 
L 306.285382 211.462351 
L 306.610036 200.382046 
L 306.934691 208.692275 
L 307.259345 210.769832 
L 307.584 219.080061 
L 307.908655 214.694107 
L 308.557964 195.072733 
L 308.882618 201.997924 
L 309.207273 199.920366 
L 309.531927 199.920366 
L 310.181236 214.463267 
L 310.505891 211.924031 
L 310.830545 210.308153 
L 311.1552 216.771664 
L 311.479855 213.770748 
L 311.804509 213.539908 
L 312.129164 210.077313 
L 312.778473 206.383878 
L 313.103127 211.693191 
L 313.427782 214.694107 
L 313.752436 199.458687 
L 314.077091 217.925863 
L 314.401745 213.309069 
L 314.7264 220.465099 
L 315.051055 211.924031 
L 315.375709 213.309069 
L 315.700364 219.77258 
L 316.025018 220.695939 
L 316.674327 212.847389 
L 316.998982 212.61655 
L 317.323636 215.155786 
L 317.648291 209.615634 
L 317.972945 212.61655 
L 318.2976 213.309069 
L 318.622255 206.153038 
L 318.946909 216.079145 
L 319.271564 213.309069 
L 319.596218 208.461435 
L 319.920873 214.463267 
L 320.245527 213.770748 
L 320.570182 210.538992 
L 320.894836 212.61655 
L 321.219491 206.383878 
L 321.544145 209.615634 
L 321.8688 206.845557 
L 322.193455 209.846473 
L 322.518109 206.614718 
L 322.842764 211.924031 
L 323.167418 212.38571 
L 323.492073 215.386626 
L 323.816727 212.38571 
L 324.141382 215.848305 
L 324.466036 209.846473 
L 324.790691 209.615634 
L 325.115345 206.845557 
L 325.764655 211.462351 
L 326.089309 211.000672 
L 326.413964 204.53716 
L 326.738618 208.461435 
L 327.063273 207.768916 
L 327.387927 198.304489 
L 327.712582 207.538076 
L 328.037236 208.692275 
L 328.361891 220.926779 
L 329.0112 206.845557 
L 329.335855 206.614718 
L 329.660509 206.153038 
L 329.985164 213.539908 
L 330.309818 209.153954 
L 330.634473 211.231511 
L 330.959127 217.925863 
L 331.608436 201.536244 
L 331.933091 210.077313 
L 332.257745 208.692275 
L 332.5824 218.618382 
L 332.907055 206.383878 
L 333.231709 209.615634 
L 333.556364 218.849221 
L 333.881018 211.000672 
L 334.205673 210.077313 
L 334.530327 215.848305 
L 334.854982 214.694107 
L 335.179636 210.769832 
L 335.504291 215.617466 
L 335.828945 211.231511 
L 336.1536 215.386626 
L 336.478255 211.924031 
L 336.802909 209.846473 
L 337.127564 202.228763 
L 337.776873 214.001588 
L 338.101527 213.309069 
L 338.426182 215.617466 
L 338.750836 211.924031 
L 339.075491 211.231511 
L 339.400145 217.464183 
L 339.7248 214.001588 
L 340.049455 217.233344 
L 340.374109 210.769832 
L 340.698764 216.771664 
L 341.023418 208.230595 
L 341.348073 216.771664 
L 341.672727 213.309069 
L 341.997382 208.230595 
L 342.322036 211.231511 
L 342.646691 210.538992 
L 342.971345 211.693191 
L 343.296 211.462351 
L 343.620655 206.153038 
L 343.945309 211.693191 
L 344.269964 206.153038 
L 344.594618 205.691359 
L 344.919273 208.230595 
L 345.243927 213.309069 
L 345.568582 201.536244 
L 345.893236 199.227847 
L 346.217891 206.153038 
L 346.542545 210.538992 
L 346.8672 209.846473 
L 347.191855 207.768916 
L 347.516509 207.307237 
L 347.841164 206.614718 
L 348.165818 208.692275 
L 348.490473 220.465099 
L 348.815127 211.924031 
L 349.139782 212.61655 
L 349.464436 204.768 
L 349.789091 208.461435 
L 350.113745 204.306321 
L 350.4384 204.768 
L 350.763055 206.845557 
L 351.087709 200.612885 
L 351.412364 211.924031 
L 351.737018 212.15487 
L 352.061673 216.309985 
L 352.386327 202.690443 
L 352.710982 201.767084 
L 353.035636 216.771664 
L 353.360291 207.307237 
L 353.684945 210.769832 
L 354.0096 222.542656 
L 354.983564 202.921282 
L 355.308218 202.459603 
L 355.632873 202.459603 
L 355.957527 204.075481 
L 356.282182 211.000672 
L 356.606836 207.999756 
L 356.931491 211.693191 
L 357.256145 220.00342 
L 357.5808 217.233344 
L 357.905455 221.157618 
L 358.230109 215.848305 
L 358.554764 220.465099 
L 358.879418 212.15487 
L 359.204073 210.538992 
L 359.528727 211.000672 
L 359.853382 206.153038 
L 360.178036 207.538076 
L 360.827345 214.924947 
L 361.152 209.615634 
L 361.476655 198.304489 
L 361.801309 209.153954 
L 362.450618 215.155786 
L 362.775273 221.619298 
L 363.424582 200.843725 
L 363.749236 204.306321 
L 364.073891 211.693191 
L 364.398545 215.848305 
L 364.7232 205.460519 
L 365.047855 217.233344 
L 365.697164 206.845557 
L 366.021818 207.076397 
L 366.346473 207.538076 
L 366.671127 211.000672 
L 366.995782 215.848305 
L 367.645091 219.310901 
L 367.969745 209.846473 
L 368.2944 205.922198 
L 368.619055 211.693191 
L 368.943709 206.383878 
L 369.268364 211.231511 
L 369.593018 201.074565 
L 369.917673 203.382962 
L 370.242327 214.001588 
L 370.566982 212.38571 
L 370.891636 217.233344 
L 371.216291 219.080061 
L 371.540945 212.61655 
L 371.8656 209.384794 
L 372.190255 209.153954 
L 372.514909 218.849221 
L 372.839564 218.156702 
L 373.164218 217.925863 
L 373.488873 214.001588 
L 373.813527 218.387542 
L 374.138182 220.23426 
L 374.462836 216.309985 
L 374.787491 217.002504 
L 375.112145 214.001588 
L 375.4368 214.232427 
L 375.761455 208.692275 
L 376.086109 218.618382 
L 376.410764 221.619298 
L 376.735418 217.695023 
L 377.060073 208.230595 
L 377.384727 207.076397 
L 377.709382 206.845557 
L 378.034036 200.843725 
L 378.358691 197.611969 
L 379.008 218.156702 
L 379.332655 221.157618 
L 379.657309 220.465099 
L 379.981964 218.618382 
L 380.306618 215.386626 
L 380.631273 207.768916 
L 380.955927 215.848305 
L 381.280582 214.694107 
L 381.605236 220.465099 
L 382.254545 203.613802 
L 382.5792 209.846473 
L 382.903855 205.691359 
L 383.228509 208.923115 
L 383.553164 205.691359 
L 383.877818 211.000672 
L 384.202473 204.306321 
L 384.527127 211.924031 
L 384.851782 206.845557 
L 385.176436 215.155786 
L 385.501091 208.461435 
L 385.825745 213.539908 
L 386.1504 220.695939 
L 386.475055 219.080061 
L 386.799709 212.847389 
L 387.124364 219.310901 
L 387.449018 214.924947 
L 387.773673 215.155786 
L 388.098327 207.768916 
L 388.422982 205.922198 
L 388.747636 207.999756 
L 389.072291 208.923115 
L 389.396945 212.38571 
L 389.7216 211.000672 
L 390.046255 210.538992 
L 390.370909 207.076397 
L 390.695564 214.924947 
L 391.020218 213.770748 
L 391.669527 205.691359 
L 391.994182 204.53716 
L 392.318836 209.153954 
L 392.643491 203.613802 
L 392.968145 194.611053 
L 393.2928 207.538076 
L 393.942109 216.540824 
L 394.266764 208.461435 
L 394.591418 215.848305 
L 394.916073 208.692275 
L 395.240727 207.999756 
L 395.565382 204.768 
L 395.890036 203.382962 
L 396.214691 206.383878 
L 396.539345 211.924031 
L 396.864 222.542656 
L 397.837964 209.153954 
L 398.162618 216.309985 
L 398.487273 210.077313 
L 398.487273 210.077313 
" clip-path="url(#p6a820cb5ce)" style="fill: none; stroke: #2ca02c; stroke-width: 1.5; stroke-linecap: square"/>
   </g>
   <g id="line2d_16">
    <path d="M 73.832727 74.112733 
L 74.157382 59.108153 
L 74.482036 53.568 
L 74.806691 72.035176 
L 75.131345 83.115481 
L 75.456 74.574412 
L 75.780655 90.040672 
L 76.105309 90.964031 
L 76.429964 95.580824 
L 76.754618 90.040672 
L 77.079273 87.270595 
L 77.728582 75.036092 
L 78.053236 65.802504 
L 78.377891 83.346321 
L 78.702545 71.804336 
L 79.0272 67.187542 
L 79.351855 75.95945 
L 80.001164 97.658382 
L 80.325818 82.884641 
L 80.650473 80.576244 
L 81.299782 91.887389 
L 81.624436 96.273344 
L 82.273745 82.192122 
L 82.5984 87.501435 
L 82.923055 81.730443 
L 83.247709 91.42571 
L 83.572364 86.808916 
L 83.897018 89.578992 
L 84.221673 89.578992 
L 84.546327 84.962198 
L 84.870982 91.19487 
L 85.195636 90.040672 
L 85.520291 96.042504 
L 85.844945 89.348153 
L 86.1696 90.502351 
L 86.494255 88.193954 
L 86.818909 89.348153 
L 87.143564 87.501435 
L 87.792873 69.265099 
L 88.117527 75.266931 
L 88.766836 115.894718 
L 89.091491 100.890137 
L 89.416145 101.813496 
L 89.7408 88.193954 
L 90.065455 87.732275 
L 90.390109 88.886473 
L 90.714764 91.65655 
L 91.039418 99.27426 
L 91.364073 97.889221 
L 91.688727 109.200366 
L 92.013382 107.353649 
L 92.338036 102.044336 
L 92.662691 90.964031 
L 92.987345 95.349985 
L 93.312 103.198534 
L 93.636655 93.734107 
L 93.961309 90.040672 
L 94.285964 97.658382 
L 94.610618 97.889221 
L 94.935273 75.266931 
L 95.259927 85.654718 
L 95.584582 82.653802 
L 95.909236 100.197618 
L 96.233891 85.654718 
L 96.558545 88.655634 
L 97.207855 105.968611 
L 97.532509 98.81258 
L 98.181818 94.426626 
L 98.506473 91.42571 
L 98.831127 110.816244 
L 99.155782 90.733191 
L 99.480436 98.120061 
L 99.805091 108.969527 
L 100.129745 94.426626 
L 100.4544 96.273344 
L 100.779055 97.196702 
L 101.103709 105.968611 
L 101.428364 99.04342 
L 102.077673 100.890137 
L 102.726982 97.427542 
L 103.051636 106.66113 
L 103.700945 93.964947 
L 104.0256 107.584489 
L 104.350255 105.045252 
L 104.674909 97.427542 
L 104.999564 114.048 
L 105.324218 115.663878 
L 106.298182 81.037924 
L 106.622836 97.427542 
L 106.947491 96.735023 
L 107.272145 103.198534 
L 107.921455 84.269679 
L 108.246109 96.735023 
L 108.570764 95.119145 
L 108.895418 96.273344 
L 109.220073 100.428458 
L 109.544727 92.810748 
L 109.869382 92.349069 
L 110.194036 101.120977 
L 110.518691 100.197618 
L 110.843345 95.580824 
L 111.168 85.885557 
L 111.492655 83.57716 
L 111.817309 95.580824 
L 112.141964 87.963115 
L 112.466618 94.888305 
L 112.791273 107.122809 
L 113.115927 98.120061 
L 113.440582 103.429374 
L 114.089891 88.886473 
L 114.414545 103.891053 
L 114.7392 102.736855 
L 115.063855 105.737771 
L 115.388509 107.353649 
L 116.037818 92.118229 
L 116.362473 87.963115 
L 116.687127 86.578076 
L 117.011782 93.964947 
L 117.336436 96.504183 
L 117.661091 103.891053 
L 117.985745 104.352733 
L 118.3104 98.350901 
L 118.635055 96.735023 
L 118.959709 98.81258 
L 119.284364 96.504183 
L 119.609018 96.965863 
L 119.933673 103.660214 
L 120.258327 105.276092 
L 120.582982 99.04342 
L 120.907636 83.346321 
L 121.556945 96.965863 
L 121.8816 102.275176 
L 122.206255 109.892885 
L 122.530909 111.277924 
L 122.855564 103.429374 
L 123.180218 104.352733 
L 123.829527 98.350901 
L 124.154182 99.505099 
L 124.478836 99.505099 
L 124.803491 106.66113 
L 125.128145 102.736855 
L 125.4528 93.964947 
L 125.777455 81.037924 
L 126.102109 84.500519 
L 126.426764 96.735023 
L 126.751418 91.42571 
L 127.076073 94.195786 
L 127.400727 91.65655 
L 128.050036 87.963115 
L 128.374691 83.808 
L 128.699345 97.658382 
L 129.024 98.350901 
L 129.348655 101.120977 
L 129.673309 78.960366 
L 129.997964 85.885557 
L 130.322618 98.350901 
L 130.647273 94.657466 
L 130.971927 105.045252 
L 131.296582 83.115481 
L 131.621236 101.120977 
L 131.945891 102.736855 
L 132.270545 107.353649 
L 132.5952 93.734107 
L 132.919855 95.119145 
L 133.244509 93.503267 
L 133.569164 106.891969 
L 133.893818 101.120977 
L 134.218473 108.738687 
L 134.543127 102.736855 
L 134.867782 93.272427 
L 135.192436 97.658382 
L 135.517091 92.118229 
L 135.841745 93.734107 
L 136.1664 88.655634 
L 136.491055 81.037924 
L 136.815709 87.270595 
L 137.140364 109.892885 
L 137.465018 96.042504 
L 137.789673 92.349069 
L 138.438982 111.047084 
L 138.763636 103.429374 
L 139.088291 90.733191 
L 139.412945 90.964031 
L 140.062255 79.422046 
L 140.386909 81.499603 
L 140.711564 101.351817 
L 141.036218 97.889221 
L 141.685527 104.583573 
L 142.010182 103.198534 
L 142.334836 96.965863 
L 142.659491 97.889221 
L 142.984145 105.045252 
L 143.3088 100.197618 
L 143.633455 100.428458 
L 143.958109 91.887389 
L 144.282764 96.504183 
L 144.607418 94.426626 
L 144.932073 88.655634 
L 145.256727 93.964947 
L 145.581382 102.967695 
L 145.906036 95.119145 
L 146.230691 108.969527 
L 146.555345 108.046168 
L 147.204655 95.811664 
L 147.529309 94.888305 
L 147.853964 84.269679 
L 148.178618 98.58174 
L 148.503273 96.735023 
L 148.827927 96.504183 
L 149.152582 95.811664 
L 149.477236 96.735023 
L 149.801891 103.198534 
L 150.126545 95.349985 
L 150.4512 93.734107 
L 150.775855 99.966779 
L 151.100509 87.963115 
L 151.425164 89.348153 
L 151.749818 89.117313 
L 152.723782 102.044336 
L 153.048436 98.58174 
L 153.373091 109.200366 
L 153.697745 103.429374 
L 154.0224 103.891053 
L 154.347055 103.891053 
L 154.671709 92.579908 
L 154.996364 95.349985 
L 155.321018 84.500519 
L 155.645673 87.270595 
L 155.970327 102.044336 
L 156.294982 103.891053 
L 156.619636 91.42571 
L 156.944291 90.040672 
L 157.268945 108.046168 
L 157.5936 100.428458 
L 157.918255 96.273344 
L 158.242909 94.426626 
L 159.216873 84.731359 
L 159.541527 111.970443 
L 159.866182 88.193954 
L 160.190836 105.506931 
L 160.840145 101.351817 
L 161.1648 88.193954 
L 161.489455 88.193954 
L 161.814109 100.197618 
L 162.463418 110.354565 
L 162.788073 111.047084 
L 163.437382 93.964947 
L 163.762036 89.117313 
L 164.086691 89.809832 
L 164.411345 94.657466 
L 164.736 97.196702 
L 165.060655 88.655634 
L 165.385309 92.810748 
L 165.709964 100.428458 
L 166.034618 95.811664 
L 166.359273 110.585405 
L 166.683927 93.503267 
L 167.008582 89.117313 
L 167.657891 107.122809 
L 167.982545 106.43029 
L 168.3072 91.19487 
L 168.631855 96.042504 
L 168.956509 89.348153 
L 169.605818 90.964031 
L 169.930473 88.655634 
L 170.255127 90.502351 
L 170.579782 101.813496 
L 170.904436 93.734107 
L 171.229091 80.114565 
L 171.553745 90.271511 
L 171.8784 92.118229 
L 172.203055 80.345405 
L 172.527709 77.575328 
L 172.852364 70.880977 
L 173.177018 81.730443 
L 173.501673 86.578076 
L 173.826327 78.267847 
L 174.150982 92.349069 
L 174.475636 98.81258 
L 174.800291 102.506015 
L 175.124945 90.964031 
L 175.4496 111.970443 
L 175.774255 96.504183 
L 176.098909 96.273344 
L 176.423564 105.506931 
L 176.748218 109.200366 
L 177.072873 106.66113 
L 178.046836 96.042504 
L 178.696145 107.353649 
L 179.0208 101.813496 
L 179.345455 99.735939 
L 179.670109 103.891053 
L 179.994764 98.58174 
L 180.319418 105.737771 
L 180.644073 89.117313 
L 180.968727 82.884641 
L 181.293382 101.351817 
L 181.618036 97.427542 
L 181.942691 94.888305 
L 182.267345 103.429374 
L 182.592 101.813496 
L 182.916655 103.429374 
L 183.241309 98.81258 
L 183.565964 72.958534 
L 183.890618 98.58174 
L 184.215273 108.738687 
L 184.539927 93.272427 
L 184.864582 97.196702 
L 185.189236 104.121893 
L 185.513891 103.429374 
L 185.838545 108.046168 
L 186.1632 108.507847 
L 186.487855 98.58174 
L 186.812509 106.43029 
L 187.461818 89.578992 
L 187.786473 95.119145 
L 188.111127 107.353649 
L 188.435782 105.276092 
L 188.760436 93.503267 
L 189.085091 111.047084 
L 189.409745 109.662046 
L 189.7344 102.506015 
L 190.708364 89.809832 
L 191.682327 107.122809 
L 192.006982 90.964031 
L 192.331636 85.423878 
L 192.656291 91.65655 
L 192.980945 95.349985 
L 193.3056 90.502351 
L 193.630255 95.811664 
L 193.954909 88.655634 
L 194.279564 90.964031 
L 194.604218 80.114565 
L 195.253527 103.198534 
L 195.578182 87.963115 
L 195.902836 87.270595 
L 196.227491 95.811664 
L 196.552145 110.816244 
L 196.8768 104.352733 
L 197.201455 103.891053 
L 197.850764 86.578076 
L 198.500073 107.353649 
L 198.824727 92.118229 
L 199.474036 105.968611 
L 199.798691 102.967695 
L 200.448 82.192122 
L 200.772655 82.422962 
L 201.097309 99.735939 
L 201.421964 96.042504 
L 202.071273 101.582656 
L 202.395927 98.350901 
L 202.720582 97.196702 
L 203.369891 99.966779 
L 203.694545 91.42571 
L 204.0192 89.809832 
L 204.343855 93.964947 
L 204.668509 95.580824 
L 204.993164 105.968611 
L 205.317818 107.122809 
L 205.642473 95.811664 
L 205.967127 109.662046 
L 206.291782 99.04342 
L 206.616436 93.734107 
L 206.941091 90.733191 
L 207.265745 101.813496 
L 207.5904 105.968611 
L 207.915055 91.42571 
L 208.239709 88.424794 
L 208.564364 80.576244 
L 209.213673 100.890137 
L 209.538327 108.507847 
L 209.862982 91.42571 
L 210.187636 98.350901 
L 210.512291 100.890137 
L 210.836945 97.427542 
L 211.1616 97.889221 
L 211.486255 84.269679 
L 211.810909 93.734107 
L 212.135564 92.579908 
L 212.460218 92.118229 
L 212.784873 93.503267 
L 213.109527 97.889221 
L 213.434182 93.041588 
L 213.758836 100.890137 
L 214.083491 95.811664 
L 214.408145 106.43029 
L 214.7328 105.045252 
L 215.057455 97.889221 
L 215.706764 96.273344 
L 216.031418 87.270595 
L 216.356073 86.116397 
L 216.680727 96.042504 
L 217.330036 102.967695 
L 217.654691 97.658382 
L 217.979345 105.506931 
L 218.628655 88.886473 
L 218.953309 91.887389 
L 219.277964 90.040672 
L 219.602618 102.967695 
L 219.927273 97.427542 
L 220.251927 108.507847 
L 220.576582 100.890137 
L 220.901236 97.196702 
L 221.225891 91.19487 
L 221.550545 97.427542 
L 221.8752 85.885557 
L 222.199855 89.117313 
L 222.524509 99.04342 
L 222.849164 97.658382 
L 223.173818 87.039756 
L 223.498473 100.890137 
L 224.147782 80.576244 
L 224.472436 80.576244 
L 224.797091 86.347237 
L 225.121745 108.277008 
L 225.4464 102.967695 
L 225.771055 108.969527 
L 226.095709 105.506931 
L 226.420364 111.739603 
L 226.745018 94.426626 
L 227.069673 93.964947 
L 227.394327 91.887389 
L 227.718982 88.424794 
L 228.043636 103.660214 
L 228.368291 99.27426 
L 229.0176 81.037924 
L 229.666909 99.966779 
L 229.991564 107.815328 
L 230.316218 92.810748 
L 230.640873 90.271511 
L 230.965527 102.506015 
L 231.290182 97.889221 
L 231.939491 103.429374 
L 232.264145 117.741435 
L 232.5888 103.429374 
L 232.913455 99.735939 
L 233.238109 97.889221 
L 233.562764 90.271511 
L 233.887418 92.349069 
L 234.212073 91.19487 
L 234.536727 95.119145 
L 234.861382 93.734107 
L 235.186036 104.121893 
L 235.510691 108.277008 
L 235.835345 110.816244 
L 236.16 112.432122 
L 236.809309 106.66113 
L 237.458618 102.044336 
L 237.783273 105.968611 
L 238.107927 107.353649 
L 238.432582 112.662962 
L 238.757236 109.200366 
L 239.406545 95.349985 
L 239.7312 84.731359 
L 240.055855 80.114565 
L 240.380509 95.811664 
L 240.705164 86.347237 
L 241.354473 90.733191 
L 241.679127 102.275176 
L 242.003782 97.196702 
L 242.328436 126.744183 
L 242.653091 111.739603 
L 242.977745 105.968611 
L 243.3024 107.122809 
L 243.627055 106.66113 
L 243.951709 97.427542 
L 244.276364 115.663878 
L 244.601018 95.811664 
L 245.250327 110.123725 
L 245.574982 111.047084 
L 246.224291 96.504183 
L 246.548945 104.583573 
L 246.8736 87.039756 
L 247.198255 105.737771 
L 247.522909 93.734107 
L 247.847564 93.964947 
L 248.496873 98.120061 
L 248.821527 101.120977 
L 249.470836 88.424794 
L 249.795491 102.967695 
L 250.120145 106.43029 
L 250.769455 101.351817 
L 251.094109 98.350901 
L 251.418764 102.967695 
L 251.743418 97.196702 
L 252.068073 100.428458 
L 252.392727 95.580824 
L 253.042036 108.507847 
L 254.016 100.890137 
L 254.340655 122.358229 
L 254.665309 98.120061 
L 254.989964 97.427542 
L 255.314618 112.893802 
L 255.639273 105.968611 
L 255.963927 105.737771 
L 256.288582 100.659298 
L 256.613236 98.120061 
L 256.937891 93.734107 
L 257.262545 94.195786 
L 257.5872 95.119145 
L 257.911855 102.275176 
L 258.236509 94.657466 
L 258.561164 92.579908 
L 258.885818 96.504183 
L 259.210473 93.734107 
L 259.535127 101.120977 
L 259.859782 99.505099 
L 260.184436 103.429374 
L 260.509091 96.965863 
L 260.833745 85.885557 
L 261.1584 99.27426 
L 261.483055 99.505099 
L 261.807709 104.583573 
L 262.132364 101.582656 
L 262.457018 104.814412 
L 262.781673 102.736855 
L 263.106327 103.429374 
L 263.430982 101.813496 
L 263.755636 96.273344 
L 264.080291 96.965863 
L 264.404945 103.891053 
L 264.7296 90.040672 
L 265.054255 90.271511 
L 265.378909 108.738687 
L 265.703564 98.120061 
L 266.352873 93.272427 
L 266.677527 99.966779 
L 267.002182 114.971359 
L 267.326836 99.27426 
L 267.651491 110.123725 
L 267.976145 98.58174 
L 268.3008 101.582656 
L 268.625455 108.738687 
L 268.950109 98.120061 
L 269.274764 107.353649 
L 269.599418 99.966779 
L 269.924073 102.736855 
L 270.248727 97.889221 
L 270.573382 98.120061 
L 271.547345 85.885557 
L 271.872 92.810748 
L 272.196655 110.354565 
L 272.521309 110.123725 
L 272.845964 112.893802 
L 273.170618 99.735939 
L 273.495273 91.887389 
L 273.819927 99.27426 
L 274.144582 98.350901 
L 274.469236 100.659298 
L 274.793891 105.506931 
L 275.118545 98.120061 
L 275.4432 105.276092 
L 275.767855 98.58174 
L 276.092509 111.739603 
L 276.417164 114.509679 
L 276.741818 103.891053 
L 277.066473 99.966779 
L 277.391127 101.813496 
L 277.715782 93.964947 
L 278.040436 90.502351 
L 278.365091 102.506015 
L 278.689745 105.506931 
L 279.0144 107.122809 
L 279.339055 95.119145 
L 279.663709 113.81716 
L 279.988364 104.583573 
L 280.313018 99.505099 
L 280.637673 111.047084 
L 280.962327 112.432122 
L 281.286982 96.965863 
L 281.611636 110.585405 
L 281.936291 105.506931 
L 282.260945 111.508763 
L 282.5856 114.971359 
L 282.910255 109.431206 
L 283.234909 99.505099 
L 283.559564 108.277008 
L 283.884218 104.814412 
L 284.208873 96.273344 
L 284.533527 103.660214 
L 284.858182 100.428458 
L 285.182836 94.195786 
L 285.507491 100.659298 
L 285.832145 92.579908 
L 286.1568 96.042504 
L 286.481455 88.424794 
L 286.806109 102.506015 
L 287.130764 96.735023 
L 287.455418 101.582656 
L 287.780073 103.198534 
L 288.104727 102.506015 
L 288.429382 111.970443 
L 288.754036 109.892885 
L 289.078691 90.271511 
L 289.403345 98.58174 
L 289.728 110.123725 
L 290.052655 110.816244 
L 290.377309 102.275176 
L 290.701964 114.27884 
L 291.026618 110.816244 
L 291.351273 115.663878 
L 291.675927 108.046168 
L 292.000582 107.353649 
L 292.325236 102.044336 
L 292.649891 93.734107 
L 292.974545 90.964031 
L 293.2992 91.887389 
L 293.623855 100.197618 
L 293.948509 98.350901 
L 294.273164 101.120977 
L 294.597818 102.275176 
L 294.922473 117.279756 
L 295.247127 102.275176 
L 295.571782 93.734107 
L 295.896436 101.582656 
L 296.221091 97.889221 
L 296.545745 104.814412 
L 296.8704 93.964947 
L 297.195055 102.736855 
L 297.519709 103.429374 
L 298.169018 108.046168 
L 298.493673 107.584489 
L 298.818327 106.19945 
L 299.142982 108.046168 
L 299.467636 104.814412 
L 299.792291 94.657466 
L 300.116945 108.046168 
L 300.4416 95.580824 
L 300.766255 97.889221 
L 301.415564 112.893802 
L 302.064873 99.735939 
L 302.389527 103.660214 
L 302.714182 110.123725 
L 303.038836 101.351817 
L 303.363491 113.355481 
L 303.688145 109.431206 
L 304.0128 107.122809 
L 304.337455 98.350901 
L 304.662109 111.970443 
L 304.986764 108.046168 
L 305.311418 111.739603 
L 305.636073 95.580824 
L 305.960727 97.427542 
L 306.285382 103.429374 
L 306.610036 93.041588 
L 306.934691 94.888305 
L 307.259345 103.429374 
L 307.584 102.506015 
L 308.233309 87.963115 
L 308.557964 90.040672 
L 308.882618 100.197618 
L 309.207273 102.506015 
L 309.531927 88.886473 
L 309.856582 98.81258 
L 310.181236 99.735939 
L 311.1552 108.277008 
L 311.479855 103.198534 
L 311.804509 93.964947 
L 312.129164 88.655634 
L 312.453818 86.578076 
L 312.778473 91.19487 
L 313.103127 111.508763 
L 313.427782 111.508763 
L 313.752436 102.506015 
L 314.077091 107.353649 
L 314.401745 101.813496 
L 315.051055 110.585405 
L 315.700364 93.272427 
L 316.025018 99.27426 
L 316.349673 90.271511 
L 316.674327 94.195786 
L 316.998982 100.197618 
L 317.323636 87.039756 
L 317.648291 104.814412 
L 317.972945 114.048 
L 318.2976 105.968611 
L 318.622255 79.191206 
L 319.271564 105.045252 
L 319.596218 107.584489 
L 319.920873 106.66113 
L 320.245527 106.66113 
L 320.570182 92.118229 
L 320.894836 98.120061 
L 321.219491 111.277924 
L 321.544145 112.662962 
L 321.8688 108.046168 
L 322.193455 100.428458 
L 322.518109 109.662046 
L 322.842764 101.351817 
L 323.167418 104.583573 
L 323.492073 91.887389 
L 323.816727 95.580824 
L 324.141382 92.810748 
L 324.466036 100.659298 
L 325.115345 93.964947 
L 325.44 111.277924 
L 325.764655 103.660214 
L 326.089309 112.662962 
L 326.413964 108.046168 
L 326.738618 96.965863 
L 327.063273 100.659298 
L 327.387927 108.738687 
L 328.037236 100.197618 
L 328.361891 105.276092 
L 328.686545 97.889221 
L 329.0112 95.580824 
L 329.335855 97.658382 
L 329.660509 103.891053 
L 329.985164 103.429374 
L 330.309818 110.585405 
L 330.634473 99.04342 
L 330.959127 96.042504 
L 331.283782 102.967695 
L 331.608436 103.198534 
L 331.933091 102.044336 
L 332.257745 114.509679 
L 332.907055 88.193954 
L 333.231709 106.891969 
L 333.881018 97.889221 
L 334.205673 95.580824 
L 334.530327 102.967695 
L 334.854982 98.350901 
L 335.179636 99.735939 
L 335.504291 94.195786 
L 335.828945 108.046168 
L 336.1536 94.426626 
L 336.478255 98.350901 
L 336.802909 108.738687 
L 337.127564 98.58174 
L 337.776873 90.271511 
L 338.101527 91.19487 
L 338.426182 91.65655 
L 338.750836 103.198534 
L 339.075491 99.735939 
L 339.400145 102.967695 
L 340.049455 90.964031 
L 340.374109 91.19487 
L 341.023418 99.966779 
L 341.348073 101.351817 
L 341.672727 98.81258 
L 341.997382 99.27426 
L 342.646691 110.816244 
L 342.971345 107.584489 
L 343.620655 115.663878 
L 344.269964 95.349985 
L 344.594618 105.737771 
L 344.919273 94.426626 
L 345.243927 87.963115 
L 345.568582 89.348153 
L 345.893236 106.19945 
L 346.217891 97.889221 
L 346.542545 82.422962 
L 346.8672 102.736855 
L 347.191855 101.813496 
L 347.516509 95.811664 
L 347.841164 106.66113 
L 348.165818 98.350901 
L 348.490473 106.66113 
L 348.815127 108.277008 
L 349.139782 95.811664 
L 349.464436 101.120977 
L 349.789091 100.197618 
L 350.113745 100.428458 
L 350.4384 102.275176 
L 350.763055 106.66113 
L 351.087709 108.507847 
L 351.412364 94.426626 
L 351.737018 92.810748 
L 352.061673 102.967695 
L 352.386327 108.969527 
L 352.710982 102.506015 
L 353.360291 105.506931 
L 353.684945 93.734107 
L 354.0096 112.662962 
L 354.334255 117.279756 
L 354.658909 112.662962 
L 354.983564 111.277924 
L 355.308218 119.126473 
L 355.957527 101.582656 
L 356.282182 107.815328 
L 356.606836 106.891969 
L 356.931491 107.815328 
L 357.256145 105.506931 
L 357.5808 114.048 
L 357.905455 97.427542 
L 358.230109 103.660214 
L 358.554764 106.43029 
L 358.879418 103.198534 
L 359.204073 103.891053 
L 359.528727 102.736855 
L 359.853382 88.886473 
L 360.178036 97.427542 
L 360.502691 109.200366 
L 360.827345 94.195786 
L 361.152 98.350901 
L 361.476655 90.964031 
L 361.801309 108.738687 
L 362.125964 111.508763 
L 362.775273 86.578076 
L 363.424582 87.963115 
L 363.749236 91.65655 
L 364.398545 104.583573 
L 364.7232 111.739603 
L 365.047855 108.738687 
L 365.372509 101.120977 
L 365.697164 106.66113 
L 366.021818 99.04342 
L 366.346473 95.811664 
L 366.671127 116.818076 
L 366.995782 110.354565 
L 367.320436 113.81716 
L 367.645091 112.432122 
L 368.619055 94.195786 
L 368.943709 77.806168 
L 369.268364 83.346321 
L 369.593018 93.734107 
L 369.917673 91.65655 
L 370.566982 65.109985 
L 371.216291 77.113649 
L 371.540945 76.19029 
L 371.8656 82.653802 
L 372.190255 84.500519 
L 372.839564 101.351817 
L 373.164218 87.501435 
L 373.813527 99.505099 
L 374.138182 92.579908 
L 374.462836 95.580824 
L 374.787491 96.965863 
L 375.112145 95.811664 
L 375.4368 101.351817 
L 375.761455 97.658382 
L 376.086109 110.816244 
L 376.410764 103.891053 
L 376.735418 108.969527 
L 377.060073 102.736855 
L 377.384727 103.891053 
L 377.709382 102.044336 
L 378.034036 105.737771 
L 378.358691 103.891053 
L 378.683345 109.662046 
L 379.008 112.201282 
L 379.332655 97.427542 
L 379.657309 110.585405 
L 379.981964 102.275176 
L 380.631273 96.504183 
L 381.280582 99.505099 
L 381.605236 100.428458 
L 381.929891 77.575328 
L 382.254545 89.809832 
L 382.5792 106.43029 
L 382.903855 108.277008 
L 383.228509 98.81258 
L 383.553164 94.888305 
L 383.877818 94.888305 
L 384.202473 102.967695 
L 384.527127 90.040672 
L 384.851782 106.891969 
L 385.176436 100.428458 
L 385.501091 83.808 
L 386.1504 116.356397 
L 386.475055 101.120977 
L 386.799709 110.585405 
L 387.124364 103.660214 
L 387.449018 102.044336 
L 387.773673 102.275176 
L 388.098327 108.277008 
L 388.422982 108.277008 
L 388.747636 99.505099 
L 389.072291 100.659298 
L 389.396945 95.811664 
L 389.7216 105.968611 
L 390.046255 88.655634 
L 390.370909 91.19487 
L 390.695564 95.119145 
L 391.020218 93.041588 
L 391.344873 104.352733 
L 391.669527 90.733191 
L 391.994182 93.272427 
L 392.318836 87.039756 
L 392.643491 86.347237 
L 393.2928 107.584489 
L 393.617455 96.273344 
L 393.942109 99.04342 
L 394.266764 113.124641 
L 394.591418 101.120977 
L 394.916073 101.120977 
L 395.240727 96.273344 
L 395.565382 99.27426 
L 395.890036 98.120061 
L 396.214691 106.19945 
L 396.539345 107.122809 
L 396.864 102.506015 
L 397.188655 92.810748 
L 397.513309 101.813496 
L 397.837964 102.044336 
L 398.487273 87.732275 
L 398.487273 87.732275 
" clip-path="url(#p6a820cb5ce)" style="fill: none; stroke: #d62728; stroke-width: 1.5; stroke-linecap: square"/>
   </g>
   <g id="patch_3">
    <path d="M 57.6 307.584 
L 57.6 41.472 
" style="fill: none; stroke: #000000; stroke-width: 0.8; stroke-linejoin: miter; stroke-linecap: square"/>
   </g>
   <g id="patch_4">
    <path d="M 414.72 307.584 
L 414.72 41.472 
" style="fill: none; stroke: #000000; stroke-width: 0.8; stroke-linejoin: miter; stroke-linecap: square"/>
   </g>
   <g id="patch_5">
    <path d="M 57.6 307.584 
L 414.72 307.584 
" style="fill: none; stroke: #000000; stroke-width: 0.8; stroke-linejoin: miter; stroke-linecap: square"/>
   </g>
   <g id="patch_6">
    <path d="M 57.6 41.472 
L 414.72 41.472 
" style="fill: none; stroke: #000000; stroke-width: 0.8; stroke-linejoin: miter; stroke-linecap: square"/>
   </g>
   <g id="legend_1">
    <g id="patch_7">
     <path d="M 315.796562 205.38425 
L 407.72 205.38425 
Q 409.72 205.38425 409.72 203.38425 
L 409.72 145.67175 
Q 409.72 143.67175 407.72 143.67175 
L 315.796562 143.67175 
Q 313.796562 143.67175 313.796562 145.67175 
L 313.796562 203.38425 
Q 313.796562 205.38425 315.796562 205.38425 
z
" style="fill: #ffffff; opacity: 0.8; stroke: #cccccc; stroke-linejoin: miter"/>
    </g>
    <g id="line2d_17">
     <path d="M 317.796562 151.770188 
L 327.796562 151.770188 
L 337.796562 151.770188 
" style="fill: none; stroke: #1f77b4; stroke-width: 1.5; stroke-linecap: square"/>
    </g>
    <g id="text_15">
     <!-- param=5 -->
     <g transform="translate(345.796562 155.270188) scale(0.1 -0.1)">
      <defs>
       <path id="DejaVuSans-70" d="M 1159 525 
L 1159 -1331 
L 581 -1331 
L 581 3500 
L 1159 3500 
L 1159 2969 
Q 1341 3281 1617 3432 
Q 1894 3584 2278 3584 
Q 2916 3584 3314 3078 
Q 3713 2572 3713 1747 
Q 3713 922 3314 415 
Q 2916 -91 2278 -91 
Q 1894 -91 1617 61 
Q 1341 213 1159 525 
z
M 3116 1747 
Q 3116 2381 2855 2742 
Q 2594 3103 2138 3103 
Q 1681 3103 1420 2742 
Q 1159 2381 1159 1747 
Q 1159 1113 1420 752 
Q 1681 391 2138 391 
Q 2594 391 2855 752 
Q 3116 1113 3116 1747 
z
" transform="scale(0.015625)"/>
       <path id="DejaVuSans-6d" d="M 3328 2828 
Q 3544 3216 3844 3400 
Q 4144 3584 4550 3584 
Q 5097 3584 5394 3201 
Q 5691 2819 5691 2113 
L 5691 0 
L 5113 0 
L 5113 2094 
Q 5113 2597 4934 2840 
Q 4756 3084 4391 3084 
Q 3944 3084 3684 2787 
Q 3425 2491 3425 1978 
L 3425 0 
L 2847 0 
L 2847 2094 
Q 2847 2600 2669 2842 
Q 2491 3084 2119 3084 
Q 1678 3084 1418 2786 
Q 1159 2488 1159 1978 
L 1159 0 
L 581 0 
L 581 3500 
L 1159 3500 
L 1159 2956 
Q 1356 3278 1631 3431 
Q 1906 3584 2284 3584 
Q 2666 3584 2933 3390 
Q 3200 3197 3328 2828 
z
" transform="scale(0.015625)"/>
       <path id="DejaVuSans-3d" d="M 678 2906 
L 4684 2906 
L 4684 2381 
L 678 2381 
L 678 2906 
z
M 678 1631 
L 4684 1631 
L 4684 1100 
L 678 1100 
L 678 1631 
z
" transform="scale(0.015625)"/>
       <path id="DejaVuSans-35" d="M 691 4666 
L 3169 4666 
L 3169 4134 
L 1269 4134 
L 1269 2991 
Q 1406 3038 1543 3061 
Q 1681 3084 1819 3084 
Q 2600 3084 3056 2656 
Q 3513 2228 3513 1497 
Q 3513 744 3044 326 
Q 2575 -91 1722 -91 
Q 1428 -91 1123 -41 
Q 819 9 494 109 
L 494 744 
Q 775 591 1075 516 
Q 1375 441 1709 441 
Q 2250 441 2565 725 
Q 2881 1009 2881 1497 
Q 2881 1984 2565 2268 
Q 2250 2553 1709 2553 
Q 1456 2553 1204 2497 
Q 953 2441 691 2322 
L 691 4666 
z
" transform="scale(0.015625)"/>
      </defs>
      <use xlink:href="#DejaVuSans-70"/>
      <use xlink:href="#DejaVuSans-61" transform="translate(63.476562 0)"/>
      <use xlink:href="#DejaVuSans-72" transform="translate(124.755859 0)"/>
      <use xlink:href="#DejaVuSans-61" transform="translate(165.869141 0)"/>
      <use xlink:href="#DejaVuSans-6d" transform="translate(227.148438 0)"/>
      <use xlink:href="#DejaVuSans-3d" transform="translate(324.560547 0)"/>
      <use xlink:href="#DejaVuSans-35" transform="translate(408.349609 0)"/>
     </g>
    </g>
    <g id="line2d_18">
     <path d="M 317.796562 166.448313 
L 327.796562 166.448313 
L 337.796562 166.448313 
" style="fill: none; stroke: #ff7f0e; stroke-width: 1.5; stroke-linecap: square"/>
    </g>
    <g id="text_16">
     <!-- param=10 -->
     <g transform="translate(345.796562 169.948313) scale(0.1 -0.1)">
      <use xlink:href="#DejaVuSans-70"/>
      <use xlink:href="#DejaVuSans-61" transform="translate(63.476562 0)"/>
      <use xlink:href="#DejaVuSans-72" transform="translate(124.755859 0)"/>
      <use xlink:href="#DejaVuSans-61" transform="translate(165.869141 0)"/>
      <use xlink:href="#DejaVuSans-6d" transform="translate(227.148438 0)"/>
      <use xlink:href="#DejaVuSans-3d" transform="translate(324.560547 0)"/>
      <use xlink:href="#DejaVuSans-31" transform="translate(408.349609 0)"/>
      <use xlink:href="#DejaVuSans-30" transform="translate(471.972656 0)"/>
     </g>
    </g>
    <g id="line2d_19">
     <path d="M 317.796562 181.126438 
L 327.796562 181.126438 
L 337.796562 181.126438 
" style="fill: none; stroke: #2ca02c; stroke-width: 1.5; stroke-linecap: square"/>
    </g>
    <g id="text_17">
     <!-- param=50 -->
     <g transform="translate(345.796562 184.626438) scale(0.1 -0.1)">
      <use xlink:href="#DejaVuSans-70"/>
      <use xlink:href="#DejaVuSans-61" transform="translate(63.476562 0)"/>
      <use xlink:href="#DejaVuSans-72" transform="translate(124.755859 0)"/>
      <use xlink:href="#DejaVuSans-61" transform="translate(165.869141 0)"/>
      <use xlink:href="#DejaVuSans-6d" transform="translate(227.148438 0)"/>
      <use xlink:href="#DejaVuSans-3d" transform="translate(324.560547 0)"/>
      <use xlink:href="#DejaVuSans-35" transform="translate(408.349609 0)"/>
      <use xlink:href="#DejaVuSans-30" transform="translate(471.972656 0)"/>
     </g>
    </g>
    <g id="line2d_20">
     <path d="M 317.796562 195.804563 
L 327.796562 195.804563 
L 337.796562 195.804563 
" style="fill: none; stroke: #d62728; stroke-width: 1.5; stroke-linecap: square"/>
    </g>
    <g id="text_18">
     <!-- param=100 -->
     <g transform="translate(345.796562 199.304563) scale(0.1 -0.1)">
      <use xlink:href="#DejaVuSans-70"/>
      <use xlink:href="#DejaVuSans-61" transform="translate(63.476562 0)"/>
      <use xlink:href="#DejaVuSans-72" transform="translate(124.755859 0)"/>
      <use xlink:href="#DejaVuSans-61" transform="translate(165.869141 0)"/>
      <use xlink:href="#DejaVuSans-6d" transform="translate(227.148438 0)"/>
      <use xlink:href="#DejaVuSans-3d" transform="translate(324.560547 0)"/>
      <use xlink:href="#DejaVuSans-31" transform="translate(408.349609 0)"/>
      <use xlink:href="#DejaVuSans-30" transform="translate(471.972656 0)"/>
      <use xlink:href="#DejaVuSans-30" transform="translate(535.595703 0)"/>
     </g>
    </g>
   </g>
  </g>
 </g>
 <defs>
  <clipPath id="p6a820cb5ce">
   <rect x="57.6" y="41.472" width="357.12" height="266.112"/>
  </clipPath>
 </defs>
</svg>
